<svg xmlns="http://www.w3.org/2000/svg" width="1024" height="1024" shape-rendering="geometricPrecision" text-rendering="geometricPrecision" image-rendering="optimizeQuality" fill-rule="evenodd" clip-rule="evenodd"><path fill="#d7f4e9" d="M272.5 152.5c16.314.378 32.648.545 49 .5a594.989 594.989 0 011 48.5h36c.167 14.67 0 29.337-.5 44a457.546 457.546 0 01-42.5 1v-40h-44a743.829 743.829 0 011-54zm49 56h31v32a237.256 237.256 0 01-30.5-1c.426-10.798.259-21.131-.5-31z"/><path fill="#40d4c6" d="M525.5 113.5c11.942 18.85 17.109 39.516 15.5 62-3.801 23.265-12.801 44.265-27 63l-39 50a4215.548 4215.548 0 0134-83c4.344-12.502 7.511-25.168 9.5-38 1.34.794 1.507-1.206.5-6-.71-1.473-1.876-2.14-3.5-2a51.557 51.557 0 012-15 14.972 14.972 0 00-3-3.5 6.978 6.978 0 002.5-3.5c1.958-9.703 3.291-19.036 4-28 .876 2.135 2.376 3.469 4.5 4z"/><path fill="#d3f2e7" d="M383.5 185.5c4.134-.985 8.468-1.318 13-1v12a84.902 84.902 0 01-13-.5c.023-3.599.023-7.099 0-10.5z"/><path fill="#2fc9c1" d="M525.5 113.5c-2.124-.531-3.624-1.865-4.5-4-.709 8.964-2.042 18.297-4 28a6.978 6.978 0 01-2.5 3.5 14.972 14.972 0 013 3.5 51.557 51.557 0 00-2 15c1.624-.14 2.79.527 3.5 2 1.007 4.794.84 6.794-.5 6a12.93 12.93 0 00-.5-5 1133.215 1133.215 0 01-55 85 293.528 293.528 0 00-22.5 46c-4.867 2.097-5.867 1.097-3-3a25.866 25.866 0 01-5-3l-1 .5c2.348 1.688 2.515 3.522.5 5.5-2.543-1.376-2.709-2.543-.5-3.5-2.916-2.071-2.582-3.405 1-4l-1-1c2.65-3.207 2.484-3.707-.5-1.5a59.271 59.271 0 01-2.5-8c.468-1.634 1.468-2.8 3-3.5l-2-2c1.333-1 1.333-2 0-3 2.528-1.316 2.528-2.483 0-3.5a10.258 10.258 0 014-1.5l-2-1c1.333-.667 1.333-1.333 0-2l2-1c-1.456-.423-1.956-1.256-1.5-2.5 2.929 1.684 5.762 1.184 8.5-1.5-3.854-2.366-3.521-4.366 1-6-2.491-.626-2.491-1.459 0-2.5-1.684-1.354-2.184-3.021-1.5-5 .423 1.456 1.256 1.956 2.5 1.5l-2-4 2-1c-1.692-1.401-2.359-3.234-2-5.5a794.64 794.64 0 0143.5-62c10.496-14.842 18.83-30.842 25-48 2.802-8.523 2.969-17.023.5-25.5l1.5-1.5a160.882 160.882 0 0114.5 19z"/><path fill="#9cf2df" d="M683.5 200.5a507.055 507.055 0 0145-1v7h-53c-.295-2.235.039-4.235 1-6v5c17.003.167 34.003 0 51-.5-16.663-.5-33.33-.667-50-.5v-3c16.67.167 33.337 0 50-.5-14.663-.5-29.33-.667-44-.5z" opacity=".29"/><path fill="#5deccf" d="M676.5 200.5h7c14.67-.167 29.337 0 44 .5-16.663.5-33.33.667-50 .5v3c16.67-.167 33.337 0 50 .5-16.997.5-33.997.667-51 .5v-5z"/><path fill="#ebc658" d="M762.5 194.5a196.99 196.99 0 00-1.5 20 246.97 246.97 0 01-2-24 242.43 242.43 0 00-.5 22c-8.007-.166-16.007 0-24 .5l23 1v3c-8.994.5-17.994.666-27 .5.167-11.338 0-22.672-.5-34a612.388 612.388 0 00-.5 35h-1v-12-7-17c11.376.044 22.543.044 33.5 0a65.75 65.75 0 001.5 10c-.363.683-.696 1.35-1 2zm-27-4h22v21c-7.674.166-15.341 0-23-.5a108.41 108.41 0 001-20.5z"/><path fill="#ecbc42" d="M762.5 194.5a802.06 802.06 0 00.5 21c-.422 1.926-1.589 2.926-3.5 3h-30c-.167-11.671 0-23.338.5-35 .5 11.328.667 22.662.5 34 9.006.166 18.006 0 27-.5v-3l-23-1c7.993-.5 15.993-.666 24-.5-.166-7.341 0-14.674.5-22a246.97 246.97 0 002 24 196.99 196.99 0 011.5-20zm-27-4a108.41 108.41 0 01-1 20.5c7.659.5 15.326.666 23 .5v-21h-22z"/><path fill="#c0f2e1" d="M728.5 218.5h20v70a1190.252 1190.252 0 01-1-69c-6.461.709-12.794.376-19-1z" opacity=".269"/><path fill="#65e4d0" d="M607.5 270.5c-.543.06-.876.393-1 1a38.518 38.518 0 005.5 12c.667 1 .667 2 0 3-1.26-4.031-3.26-4.698-6-2a16.411 16.411 0 01-7-3l-1 1a18.924 18.924 0 01-3-5c-1.031 3.039-2.865 5.539-5.5 7.5-.561 1.566.106 2.899 2 4a9.454 9.454 0 00-1.5 2.5c-2.861-.408-3.028.425-.5 2.5l-2 3c1.367 2.301 2.034 4.801 2 7.5-6.216-14.76-14.716-28.093-25.5-40 .765-4.555 2.432-8.888 5-13a159.744 159.744 0 0011.5-21c11.375 11.712 20.375 25.045 27 40z"/><path fill="#2bc3be" d="M440.5 231.5c-.359 2.266.308 4.099 2 5.5l-2 1 2 4c-1.244.456-2.077-.044-2.5-1.5-.684 1.979-.184 3.646 1.5 5-2.491 1.041-2.491 1.874 0 2.5-4.521 1.634-4.854 3.634-1 6-2.738 2.684-5.571 3.184-8.5 1.5-.456 1.244.044 2.077 1.5 2.5l-2 1c1.333.667 1.333 1.333 0 2l2 1a10.258 10.258 0 00-4 1.5c2.528 1.017 2.528 2.184 0 3.5 1.333 1 1.333 2 0 3l2 2c-1.532.7-2.532 1.866-3 3.5a59.271 59.271 0 002.5 8c2.984-2.207 3.15-1.707.5 1.5l1 1c-3.582.595-3.916 1.929-1 4-2.209.957-2.043 2.124.5 3.5 2.015-1.978 1.848-3.812-.5-5.5l1-.5a25.866 25.866 0 005 3c-2.867 4.097-1.867 5.097 3 3a477.567 477.567 0 00-18 69c-.164-3.248-1.164-6.248-3-9-3.71-1.911-5.044-4.744-4-8.5-1.215-2.096-2.049-1.929-2.5.5-1.824-1.249-1.657-2.415.5-3.5a64.973 64.973 0 01-2-7c2.788-2.074 2.455-3.574-1-4.5-.951.826-1.951.992-3 .5 1.333-.667 1.333-1.333 0-2l2-1c-.116-1.268-.449-2.602-1-4 2.45-1.614 2.283-3.114-.5-4.5-.873.235-1.707.569-2.5 1a112.33 112.33 0 00-2-5c8.009-30.008 20.342-58.008 37-84z"/><path fill="#7dedd6" d="M748.5 218.5h11c-1.419.951-3.085 1.284-5 1-.562 6.389-.228 12.889 1 19.5a7040.813 7040.813 0 000 49.5h-7v-70z"/><path fill="#25bbbb" d="M316.5 283.5c9.396 7.061 17.396 15.395 24 25 .45 16.649-.216 33.482-2 50.5.235.873.569 1.707 1 2.5-.346 1.196-.846 1.196-1.5 0a2.428 2.428 0 00-.5 2c-5.313-14.291-12.48-27.624-21.5-40a10866.934 10866.934 0 00-19.5-23c2.901-2.376 2.568-4.209-1-5.5 1.365-1.682 2.865-1.849 4.5-.5.617-.949.451-1.782-.5-2.5a15.645 15.645 0 004-2.5c1.175 1.355 2.175 1.188 3-.5-1.231-1.183-1.231-2.349 0-3.5 2.095-2.089 3.928-2.089 5.5 0 1.587.158 3.087-.509 4.5-2z"/><path fill="#57decc" d="M607.5 270.5c8.378 16.133 14.378 33.133 18 51-.748 2.433-1.915 4.766-3.5 7l-3-1c-1.337 1.504-3.004 2.504-5 3-1.008-.482-2.175-.648-3.5-.5 1.196-.654 1.196-1.154 0-1.5a44.222 44.222 0 01-5.5 8c-.667-1.333-1.333-1.333-2 0l-1-3c-.047 4.316.786 8.483 2.5 12.5-.837 1.011-1.17 2.178-1 3.5a437.204 437.204 0 00-14-45c.034-2.699-.633-5.199-2-7.5l2-3c-2.528-2.075-2.361-2.908.5-2.5a9.454 9.454 0 011.5-2.5c-1.894-1.101-2.561-2.434-2-4 2.635-1.961 4.469-4.461 5.5-7.5a18.924 18.924 0 003 5l1-1a16.411 16.411 0 007 3c2.74-2.698 4.74-2.031 6 2 .667-1 .667-2 0-3a38.518 38.518 0 01-5.5-12c.124-.607.457-.94 1-1z"/><path fill="#2dc6bf" d="M316.5 283.5c-1.413 1.491-2.913 2.158-4.5 2-1.572-2.089-3.405-2.089-5.5 0-1.231 1.151-1.231 2.317 0 3.5-.825 1.688-1.825 1.855-3 .5a15.645 15.645 0 01-4 2.5c.951.718 1.117 1.551.5 2.5-1.635-1.349-3.135-1.182-4.5.5 3.568 1.291 3.901 3.124 1 5.5a32.859 32.859 0 01-5.5-6l-.5 2a110.765 110.765 0 014 26.5 594.337 594.337 0 01-5 45.5 24.935 24.935 0 00-.5-7 130.373 130.373 0 01-1.5 16c-.223-4.638-.39-9.305-.5-14-1.016 1.134-1.683.801-2-1-1.544 2.764-2.711 2.597-3.5-.5 1.134-1.016.801-1.683-1-2l1-1a25.777 25.777 0 00-8-2 3.647 3.647 0 001-1.5c-1.489-.033-2.822-.533-4-1.5.951-.718 1.117-1.551.5-2.5l-3 3c-.833-1.5-2-2.667-3.5-3.5h4a141.176 141.176 0 01-4-11.5c2.988-21.766 2.488-43.433-1.5-65-3.328-14.318-10.995-25.651-23-34-.667-.667-.667-1.333 0-2 29.063 9.269 54.563 24.269 76.5 45z"/><path fill="#2ec6c0" d="M513.5 320.5a212.302 212.302 0 0125 24c-.438-.065-.772.101-1 .5l3 3c-4.937 1.609-8.271 4.776-10 9.5-2.324.162-3.991 1.328-5 3.5 1.46.811 1.793 1.645 1 2.5a55.05 55.05 0 01-6.5-6c-.399.228-.565.562-.5 1a701.521 701.521 0 00-7-4c.641-9.668 1.308-19.334 2-29-1.924-1.465-2.257-3.132-1-5z"/><path fill="#1fb2b7" d="M513.5 320.5c-1.257 1.868-.924 3.535 1 5a5521.072 5521.072 0 00-2 29v1l-2 1c-3.291.205-6.624-.628-10-2.5a3.647 3.647 0 001-1.5c-1.966-4.452-4.133-8.119-6.5-11l-5 2c.546-2.593 2.046-4.76 4.5-6.5-.228-.399-.562-.565-1-.5a157.334 157.334 0 0118.5-18c.717.544 1.217 1.211 1.5 2z"/><path fill="#20b8ba" d="M403.5 315.5a112.33 112.33 0 012 5 11.456 11.456 0 012.5-1c2.783 1.386 2.95 2.886.5 4.5.551 1.398.884 2.732 1 4l-2 1c1.333.667 1.333 1.333 0 2 1.049.492 2.049.326 3-.5 3.455.926 3.788 2.426 1 4.5a64.973 64.973 0 002 7c-2.157 1.085-2.324 2.251-.5 3.5.451-2.429 1.285-2.596 2.5-.5-1.044 3.756.29 6.589 4 8.5 1.836 2.752 2.836 5.752 3 9 .302 2.559-.032 4.893-1 7a12.93 12.93 0 00-.5-5 62.744 62.744 0 01-1.5 11 4.457 4.457 0 01-1.5-2c-2.816 2.099-4.316 1.099-4.5-3-4.393.043-4.726-.457-1-1.5a22.598 22.598 0 01-8-4l3-1c-1.279-1.646-2.945-2.813-5-3.5-.032-1.989-.865-3.989-2.5-6l-1 3c-.177-3.856-.677-7.523-1.5-11 .997-10.649 2.997-20.982 6-31z"/><path fill="#49d5c7" d="M815.5 297.5a98.432 98.432 0 0114 .5 2216.491 2216.491 0 00-1.5 133.5L802.5 465a202.123 202.123 0 00-32.5.5c-1.059-.13-1.892-.63-2.5-1.5.944-2.719 1.277-5.552 1-8.5 7.92-.315 15.753.018 23.5 1a142.342 142.342 0 0023-26 884.85 884.85 0 001.5-57c-.184-25.337-.517-50.67-1-76z"/><path fill="#1ea7b0" d="M493.5 336.5c.438-.065.772.101 1 .5-2.454 1.74-3.954 3.907-4.5 6.5l5-2c2.367 2.881 4.534 6.548 6.5 11a3.647 3.647 0 01-1 1.5c3.376 1.872 6.709 2.705 10 2.5a40798.62 40798.62 0 01-18 17c-2.577.377-5.244-.123-8-1.5 2.728-.639 3.228-1.806 1.5-3.5-1.908 2.832-2.741 2.499-2.5-1-2.948-.277-5.781.056-8.5 1a455.529 455.529 0 01-4-3c-.324 2.069-1.158 2.402-2.5 1-1.578 1.14-3.244 1.64-5 1.5 2.342-1.392 2.342-2.225 0-2.5a316.7 316.7 0 0130-29z"/><path fill="#29bdbc" d="M264.5 339.5a141.176 141.176 0 004 11.5h-4c1.5.833 2.667 2 3.5 3.5l3-3c.617.949.451 1.782-.5 2.5 1.178.967 2.511 1.467 4 1.5a3.647 3.647 0 01-1 1.5c2.789.241 5.456.908 8 2l-1 1c1.801.317 2.134.984 1 2 .789 3.097 1.956 3.264 3.5.5.317 1.801.984 2.134 2 1 .11 4.695.277 9.362.5 14a130.373 130.373 0 001.5-16c.497 2.31.663 4.643.5 7v35c-.722.418-1.222 1.084-1.5 2a98.984 98.984 0 01-2.5-9 99.692 99.692 0 01-6.5-4c-4.288.737-6.621-1.263-7-6a22.981 22.981 0 00-2 5c-1.99-2.386-3.99-4.053-6-5l-1 7c-.556-2.095-1.056-2.262-1.5-.5a102.13 102.13 0 010 16.5c-1.802-23.315-.802-46.648 3-70z"/><path fill="#d4f4e9" d="M512.5 354.5a701.521 701.521 0 017 4c8 8.667 16.333 17 25 25 3.588 1.835 5.254 4.501 5 8a102903.03 102903.03 0 00-37 34v-70-1z"/><path fill="#2fb7bb" d="M538.5 344.5a2.428 2.428 0 012 .5 1248.51 1248.51 0 0030 29.5c1.327 16.162 1.327 32.162 0 48 .167-15.67 0-31.337-.5-47l-1 14c-.121-2.227-.954-4.06-2.5-5.5 2.104-1.836 2.438-4.002 1-6.5.295 1.326-.205 2.659-1.5 4a82.902 82.902 0 01-13-3c-.336 1.574-1.169 2.908-2.5 4 1.109 1.465.609 2.465-1.5 3a14.972 14.972 0 00-3.5-3c-.607.124-.94.457-1 1-8.667-8-17-16.333-25-25-.065-.438.101-.772.5-1a55.05 55.05 0 006.5 6c.793-.855.46-1.689-1-2.5 1.009-2.172 2.676-3.338 5-3.5 1.729-4.724 5.063-7.891 10-9.5l-3-3c.228-.399.562-.565 1-.5z"/><path fill="#18a3ad" d="M340.5 308.5c19.505 20.691 30.672 45.358 33.5 74 .5 11.662.667 23.329.5 35-.617-.111-1.117-.444-1.5-1-.553 2.859-.386 5.692.5 8.5-.269 1.607-1.103 2.774-2.5 3.5-.127-1.277.373-2.443 1.5-3.5a18.14 18.14 0 01-3.5-7.5c-3.386-2.38-6.719-2.38-10 0a9.454 9.454 0 00-1.5-2.5c1.217-2.011.884-4.011-1-6 2.667-1 2.667-2 0-3l4-1c-2.416-.661-4.082-2.161-5-4.5-.758 1.311-1.758 1.811-3 1.5l1-1c-1.827-.899-3.16-2.233-4-4 2.191-1.279 4.525-3.113 7-5.5-1.08-2.548-3.08-4.715-6-6.5l4-2a16.242 16.242 0 00-8 0c.971 1.204 1.971 1.704 3 1.5a20.453 20.453 0 00-5 4.5c.444 1.762.944 1.595 1.5-.5 2.651.932 2.985 2.265 1 4-1-1.333-2-1.333-3 0a60.931 60.931 0 00-.5 11 332.779 332.779 0 00-6-40 2.428 2.428 0 01.5-2c.654 1.196 1.154 1.196 1.5 0a11.456 11.456 0 01-1-2.5c1.784-17.018 2.45-33.851 2-50.5z"/><path fill="#87edd9" d="M512.5 355.5v70a1732.962 1732.962 0 01-36.5-34c4.446-6.628 9.946-12.628 16.5-18a40798.62 40798.62 0 0018-17l2-1z"/><path fill="#49d7c8" d="M625.5 321.5c7.608 28.229 8.608 56.562 3 85-.366-4.968-.866-4.634-1.5 1-1.886-6.432-3.053-6.432-3.5 0a8.43 8.43 0 01-4-.5l2-1c-1.167-.5-2-1.333-2.5-2.5-2.191 2.982-4.524 3.315-7 1a13.92 13.92 0 01-4 3l-1-16c-.21 1.558-.71 2.891-1.5 4a339.64 339.64 0 00-2-46c-.17-1.322.163-2.489 1-3.5-1.714-4.017-2.547-8.184-2.5-12.5l1 3c.667-1.333 1.333-1.333 2 0a44.222 44.222 0 005.5-8c1.196.346 1.196.846 0 1.5 1.325-.148 2.492.018 3.5.5 1.996-.496 3.663-1.496 5-3l3 1c1.585-2.234 2.752-4.567 3.5-7z"/><path fill="#eac24b" d="M839.5 511.5c-.951-1.419-1.284-3.085-1-5h-9a1993.92 1993.92 0 0136.5-39c.5-22.331.667-44.664.5-67a72.367 72.367 0 0112 .5 3177.247 3177.247 0 01-2.5 72.5 392.799 392.799 0 01-36.5 38z"/><path fill="#3dd3c5" d="M708.5 494.5c-1.871.359-3.371 1.359-4.5 3-2.946-4.263-5.28-3.93-7 1-1.667-1.333-3.333-1.333-5 0a11.333 11.333 0 00-3.5-1.5c1.354-1.294 2.688-1.46 4-.5l1-1.5c-1.305-.193-2.639-1.193-4-3 3.861-1.343 3.861-2.843 0-4.5-1 .333-1.667 1-2 2 1.141.925 1.141 1.759 0 2.5l2 2a42.284 42.284 0 01-9 .5c-1.268-2.626-1.268-4.793 0-6.5 2.122-1.081 4.122-1.748 6-2-1.036-1.776-1.036-3.609 0-5.5 17.495-18.989 28.661-41.322 33.5-67a614.337 614.337 0 005-38 100.228 100.228 0 016.5-21.5c-2.098.032-4.098.699-6 2a207.675 207.675 0 00-34 25c-18.722 18.828-35.722 38.328-51 58.5 17.537-72.372 62.537-116.539 135-132.5-12.399 20.862-20.232 43.362-23.5 67.5.244 42.264-12.089 80.264-37 114a54.53 54.53 0 01-6.5 6z"/><path fill="#1eb4b8" d="M289.5 403.5a330.742 330.742 0 002 18c-1.009 3.678-2.843 7.011-5.5 10-1.333-1.333-2.667-1.333-4 0a9.568 9.568 0 00-3-3c-4.134 3.208-7.301 2.541-9.5-2a18.08 18.08 0 00-3.5 2l-2-10a12.93 12.93 0 00-.5 5c-1.301-4.443-1.968-9.109-2-14a102.13 102.13 0 000-16.5c.444-1.762.944-1.595 1.5.5l1-7c2.01.947 4.01 2.614 6 5a22.981 22.981 0 012-5c.379 4.737 2.712 6.737 7 6a99.692 99.692 0 006.5 4 98.984 98.984 0 002.5 9c.278-.916.778-1.582 1.5-2z"/><path fill="#18a3ad" d="M570.5 422.5c.323 6.522-.01 12.855-1 19 .166-6.342 0-12.675-.5-19l-1 7a8.43 8.43 0 01-.5-4c-3.441-.215-6.607-.215-9.5 0-.605-1.981-1.605-2.315-3-1-.71-1.473-1.876-2.14-3.5-2-1.304-7.002-1.304-16.002 0-27-.457-.798-1.124-1.131-2-1v-3c.254-3.499-1.412-6.165-5-8 .06-.543.393-.876 1-1a14.972 14.972 0 013.5 3c2.109-.535 2.609-1.535 1.5-3 1.331-1.092 2.164-2.426 2.5-4a82.902 82.902 0 0013 3c1.295-1.341 1.795-2.674 1.5-4 1.438 2.498 1.104 4.664-1 6.5 1.546 1.44 2.379 3.273 2.5 5.5l1-14c.5 15.663.667 31.33.5 47z"/><path fill="#4bd8c9" d="M338.5 560.5c-2.148-.111-2.481.556-1 2l-2 2a12.793 12.793 0 004.5 2c1.011-.392 1.511-1.059 1.5-2l2.5 3c1.073-.78 2.24-.613 3.5.5l-3 1c2.179.442 2.845 1.442 2 3 2.682 2.33 2.349 2.83-1 1.5l-1 2c-1.032-1.54-2.365-2.04-4-1.5l1 1c-4.503 1.165-8.836 1.665-13 1.5-37.73-12.52-71.064-32.187-100-59-40.297-42.212-51.13-91.212-32.5-147a8.905 8.905 0 013 4c2.963 42.88 15.63 82.546 38 119 19.162 24.492 42.995 42.992 71.5 55.5a561.52 561.52 0 0030 11.5z"/><path fill="#1faeb5" d="M397.5 346.5c.823 3.477 1.323 7.144 1.5 11l1-3c1.635 2.011 2.468 4.011 2.5 6 2.055.687 3.721 1.854 5 3.5l-3 1a22.598 22.598 0 008 4c-3.726 1.043-3.393 1.543 1 1.5.184 4.099 1.684 5.099 4.5 3a4.457 4.457 0 001.5 2 62.744 62.744 0 001.5-11 12.93 12.93 0 01.5 5c-.174 22.448 2.826 44.448 9 66-.624.417-.957 1.084-1 2 1.694 3.164 2.194 6.498 1.5 10a4.457 4.457 0 01-1.5-2c.826-.951.992-1.951.5-3a40.179 40.179 0 01-6 2 127.818 127.818 0 01-2-3l-1 3c-.513-2.021-1.68-3.521-3.5-4.5.951-.718 1.117-1.551.5-2.5-.667 1.333-1.333 1.333-2 0-.639 2.728-1.806 3.228-3.5 1.5 2.267-1.081 2.434-2.581.5-4.5a4.457 4.457 0 01-1.5 2 10.756 10.756 0 00-3-2.5 4.457 4.457 0 002-1.5 7.492 7.492 0 00-5-.5 7.248 7.248 0 002-2.5 63.69 63.69 0 01-6.5-15 8.43 8.43 0 00-.5 4c-5.396-23.68-6.396-47.68-3-72z"/><path fill="#3cd2c5" d="M549.5 391.5v3a473.583 473.583 0 01-1 37 49.83 49.83 0 01-2.5-7c-1.101 1.894-2.434 2.561-4 2-4.198 2.863-8.031 2.53-11.5-1-1.85.742-2.516 1.742-2 3-3.049-1.966-6.382-2.466-10-1.5.266 3.201-.9 3.367-3.5.5l-1 15c-.174-4.851-.674-9.518-1.5-14v-3a102903.03 102903.03 0 0137-34z"/><path fill="#169ba7" d="M463.5 365.5c2.342.275 2.342 1.108 0 2.5 1.756.14 3.422-.36 5-1.5 1.342 1.402 2.176 1.069 2.5-1 1.137.864 2.47 1.864 4 3 2.719-.944 5.552-1.277 8.5-1-.241 3.499.592 3.832 2.5 1 1.728 1.694 1.228 2.861-1.5 3.5 2.756 1.377 5.423 1.877 8 1.5-6.554 5.372-12.054 11.372-16.5 18a1732.962 1732.962 0 0036.5 34v32c-.809 1.792-1.309 3.792-1.5 6-1.008-.482-2.175-.648-3.5-.5a308.56 308.56 0 01-31.5-27.5 6359.946 6359.946 0 00-2-46c-.163 2.176-.996 4.009-2.5 5.5l1.5 1.5c.499 3.652.665 7.318.5 11-2.273 1.235-4.106.902-5.5-1-.914 3.685-1.581 3.352-2-1-2.109.535-2.609 1.535-1.5 3-1.369 1.624-3.036 2.124-5 1.5 2.673-1.271 2.673-1.937 0-2a9.454 9.454 0 00-1.5 2.5c-.914-1.154-1.747-.987-2.5.5a4.457 4.457 0 012 1.5 23.663 23.663 0 00-2.5 6c-.828-9.31-1.328-9.31-1.5 0-1.686-13.473-2.186-27.14-1.5-41a193.893 193.893 0 0011.5-12z"/><path fill="#37cfc3" d="M628.5 406.5c-3.03 24.435-11.363 46.769-25 67-.781-2.128-1.781-2.295-3-.5l1 1a68.24 68.24 0 00-6.5 8.5c-1.816-.829-3.649-1.663-5.5-2.5a7.293 7.293 0 013-2c-1.771-2.113-3.271-1.947-4.5.5-.918-2.132-2.251-2.799-4-2a7.293 7.293 0 01-2-3c-1.101 1.894-2.434 2.561-4 2-.833-4.336 1-6.336 5.5-6a6.846 6.846 0 00-1-4 20.79 20.79 0 002.5-1l1 2a12.93 12.93 0 00.5-5 4.934 4.934 0 003-.5 7.293 7.293 0 01-3-2c1.655-1.444 2.322-3.278 2-5.5 10.094-18.436 15.761-37.769 17-58 .79-1.109 1.29-2.442 1.5-4l1 16a13.92 13.92 0 004-3c2.476 2.315 4.809 1.982 7-1 .5 1.167 1.333 2 2.5 2.5l-2 1a8.43 8.43 0 004 .5c.447-6.432 1.614-6.432 3.5 0 .634-5.634 1.134-5.968 1.5-1z"/><path fill="#0f919d" d="M512.5 457.5a40.914 40.914 0 00.5 9 4.457 4.457 0 001.5 2 39.664 39.664 0 0011-10 626.39 626.39 0 0022.5-20c.497-2.31.663-4.643.5-7a473.583 473.583 0 001-37c.876-.131 1.543.202 2 1-1.304 10.998-1.304 19.998 0 27 1.624-.14 2.79.527 3.5 2 1.395-1.315 2.395-.981 3 1 2.893-.215 6.059-.215 9.5 0a8.43 8.43 0 00.5 4l1-7c.5 6.325.666 12.658.5 19-2.751 4.257-6.084 8.09-10 11.5a1357.264 1357.264 0 01-47.5 40.5 2021.581 2021.581 0 01-57-50 942.279 942.279 0 01-1.5-25c.172-9.31.672-9.31 1.5 0a23.663 23.663 0 012.5-6 4.457 4.457 0 00-2-1.5c.753-1.487 1.586-1.654 2.5-.5a9.454 9.454 0 011.5-2.5c2.673.063 2.673.729 0 2 1.964.624 3.631.124 5-1.5-1.109-1.465-.609-2.465 1.5-3 .419 4.352 1.086 4.685 2 1 1.394 1.902 3.227 2.235 5.5 1a60.931 60.931 0 00-.5-11l-1.5-1.5c1.504-1.491 2.337-3.324 2.5-5.5a6359.946 6359.946 0 012 46 308.56 308.56 0 0031.5 27.5c1.325-.148 2.492.018 3.5.5.191-2.208.691-4.208 1.5-6z"/><path fill="#28c4bf" d="M548.5 431.5a24.935 24.935 0 01-.5 7 626.39 626.39 0 01-22.5 20c-.438.065-.772-.101-1-.5l6-6c-1.439-.991-2.439-2.324-3-4-1.049-.492-2.049-.326-3 .5-1.015-2.668-2.682-3.334-5-2 1.05 1.602.383 2.435-2 2.5l1 1c-1.496.507-2.663.007-3.5-1.5l-1 4c-.383-.556-.883-.889-1.5-1v-23c.826 4.482 1.326 9.149 1.5 14l1-15c2.6 2.867 3.766 2.701 3.5-.5 3.618-.966 6.951-.466 10 1.5-.516-1.258.15-2.258 2-3 3.469 3.53 7.302 3.863 11.5 1 1.566.561 2.899-.106 4-2a49.83 49.83 0 002.5 7z"/><path fill="#1db3b8" d="M525.5 458.5a39.664 39.664 0 01-11 10 4.457 4.457 0 01-1.5-2 40.914 40.914 0 01-.5-9v-6c.617.111 1.117.444 1.5 1l1-4c.837 1.507 2.004 2.007 3.5 1.5l-1-1c2.383-.065 3.05-.898 2-2.5 2.318-1.334 3.985-.668 5 2 .951-.826 1.951-.992 3-.5.561 1.676 1.561 3.009 3 4l-6 6c.228.399.562.565 1 .5z"/><path fill="#179aa5" d="M374.5 417.5c2.301 34.099 14.801 63.766 37.5 89 18.464 19.637 37.964 37.97 58.5 55 1.07 7.913 4.57 14.58 10.5 20 .684 1.284.517 2.451-.5 3.5 2.89 2.322 4.89 4.822 6 7.5a111.515 111.515 0 015 11c8.722 11.77 14.889 24.436 18.5 38a42.88 42.88 0 004.5 6.5c-.674 1.751-1.007 3.417-1 5 1.801.317 2.134.984 1 2a4.934 4.934 0 003 .5c-1.157 2.848-.824 5.348 1 7.5l-2 1a18.27 18.27 0 014 5c-1.042 1.655-2.375 2.821-4 3.5a4.457 4.457 0 002 1.5l-1 1a12.403 12.403 0 014 2.5c-.825.886-1.825 1.219-3 1-.363 2.411.637 3.911 3 4.5-1.435 2.267-1.102 4.267 1 6-1.333 1.333-1.333 2.667 0 4a13.92 13.92 0 01-3 4c1.237.232 2.237.732 3 1.5-8.368 20.914-20.368 39.414-36 55.5a110.872 110.872 0 01-14 11c-1 .667-2 .667-3 0 17.17-17.184 26.67-38.017 28.5-62.5 3.738-32.202-2.596-62.202-19-90a340.93 340.93 0 00-20.5-23.5l-20-13a1812.544 1812.544 0 00-74-32c-25.893-10.687-48.393-26.187-67.5-46.5a166.797 166.797 0 01-9.5-14c.405-1.05 1.071-1.05 2 0 .886.825 1.219 1.825 1 3 1.808.009 3.475-.491 5-1.5-1.024-1.367-.524-2.2 1.5-2.5-.027 1.288.973 2.288 3 3a83.47 83.47 0 008.5-2c-.187 1.317.48 2.65 2 4 .791-.566.791-1.399 0-2.5a24.275 24.275 0 013.5-3.5c.507 1.496.007 2.663-1.5 3.5 2.031 2.464 4.698 3.797 8 4-1.231 1.183-1.231 2.349 0 3.5a3.647 3.647 0 001.5-1 8.43 8.43 0 01.5 4c2.772-1.934 4.605-1.267 5.5 2 .608-1.566 1.442-2.9 2.5-4 24.1 21.72 51.767 37.22 83 46.5a337.536 337.536 0 01-50.5-62.5c-12.819-23.289-19.319-47.956-19.5-74a60.931 60.931 0 01.5-11c1-1.333 2-1.333 3 0 1.985-1.735 1.651-3.068-1-4-.556 2.095-1.056 2.262-1.5.5a20.453 20.453 0 015-4.5c-1.029.204-2.029-.296-3-1.5a16.242 16.242 0 018 0l-4 2c2.92 1.785 4.92 3.952 6 6.5-2.475 2.387-4.809 4.221-7 5.5.84 1.767 2.173 3.101 4 4l-1 1c1.242.311 2.242-.189 3-1.5.918 2.339 2.584 3.839 5 4.5l-4 1c2.667 1 2.667 2 0 3 1.884 1.989 2.217 3.989 1 6a9.454 9.454 0 011.5 2.5c3.281-2.38 6.614-2.38 10 0a18.14 18.14 0 003.5 7.5c-1.127 1.057-1.627 2.223-1.5 3.5 1.397-.726 2.231-1.893 2.5-3.5-.886-2.808-1.053-5.641-.5-8.5.383.556.883.889 1.5 1z"/><path fill="#1ea7af" d="M291.5 421.5c5.711 28.098 18.711 52.098 39 72-1.058 1.1-1.892 2.434-2.5 4-.895-3.267-2.728-3.934-5.5-2a8.43 8.43 0 00-.5-4 3.647 3.647 0 01-1.5 1c-1.231-1.151-1.231-2.317 0-3.5-3.302-.203-5.969-1.536-8-4 1.507-.837 2.007-2.004 1.5-3.5a24.275 24.275 0 00-3.5 3.5c.791 1.101.791 1.934 0 2.5-1.52-1.35-2.187-2.683-2-4a83.47 83.47 0 01-8.5 2c-2.027-.712-3.027-1.712-3-3-2.024.3-2.524 1.133-1.5 2.5-1.525 1.009-3.192 1.509-5 1.5.219-1.175-.114-2.175-1-3-.929-1.05-1.595-1.05-2 0-12.871-17.923-20.871-37.923-24-60a12.93 12.93 0 01.5-5l2 10a18.08 18.08 0 013.5-2c2.199 4.541 5.366 5.208 9.5 2a9.568 9.568 0 013 3c1.333-1.333 2.667-1.333 4 0 2.657-2.989 4.491-6.322 5.5-10z"/><path fill="#31cbc1" d="M686.5 480.5c-1.036 1.891-1.036 3.724 0 5.5-1.878.252-3.878.919-6 2-1.268 1.707-1.268 3.874 0 6.5a42.284 42.284 0 009-.5l-2-2c1.141-.741 1.141-1.575 0-2.5.333-1 1-1.667 2-2 3.861 1.657 3.861 3.157 0 4.5 1.361 1.807 2.695 2.807 4 3l-1 1.5c-1.312-.96-2.646-.794-4 .5 1.266.309 2.433.809 3.5 1.5 1.667-1.333 3.333-1.333 5 0 1.72-4.93 4.054-5.263 7-1 1.129-1.641 2.629-2.641 4.5-3-13.297 14.156-28.63 25.656-46 34.5a272.769 272.769 0 01-20 9.5 19.602 19.602 0 00-3.5-2l-1 1c-.827-1.162-1.66-2.329-2.5-3.5 2.808-3.831 2.474-4.664-1-2.5-2.528-.998-2.528-1.831 0-2.5-.753-1.487-1.586-1.654-2.5-.5a13.92 13.92 0 01-4-3 4.457 4.457 0 01-1.5 2c-.925-1.141-1.759-1.141-2.5 0-1.113-1.26-1.28-2.427-.5-3.5-.916-.278-1.582-.778-2-1.5 23.879-10.761 45.546-24.761 65-42z"/><path fill="#2ac0bd" d="M588.5 453.5c.322 2.222-.345 4.056-2 5.5a7.293 7.293 0 003 2 4.934 4.934 0 01-3 .5 12.93 12.93 0 01-.5 5l-1-2c-.92.43-1.753.764-2.5 1a6.846 6.846 0 011 4c-4.5-.336-6.333 1.664-5.5 6 1.566.561 2.899-.106 4-2a7.293 7.293 0 002 3c1.749-.799 3.082-.132 4 2 1.229-2.447 2.729-2.613 4.5-.5a7.293 7.293 0 00-3 2c1.851.837 3.684 1.671 5.5 2.5a68.24 68.24 0 016.5-8.5l-1-1c1.219-1.795 2.219-1.628 3 .5a323.815 323.815 0 01-22.5 30 210.447 210.447 0 01-12.5 12c-2.377-.284-4.544-.284-6.5 0-.492-1.049-.326-2.049.5-3-2.417-.572-4.584-1.572-6.5-3l-1 1a15.256 15.256 0 00-4.5-1.5c1.196-.654 1.196-1.154 0-1.5a14.972 14.972 0 01-3.5 3c-.816-1.323-1.983-1.989-3.5-2 17.163-16.719 32.163-35.053 45-55z"/><path fill="#1ca6af" d="M430.5 435.5c7.167 20.009 17.667 38.009 31.5 54a3520.935 3520.935 0 0150.5 49 14.698 14.698 0 01-3 3.5c1.333.667 2.667.667 4 0-.758-1.364-.258-2.531 1.5-3.5a6.978 6.978 0 002.5 3.5l-1 1 4 6c-.746 2.093-1.079 4.093-1 6 1.123 1.044 2.456 1.71 4 2a153.941 153.941 0 00-4 4c.921 1.064 1.921 1.564 3 1.5a213.042 213.042 0 00-8.5 14l-10-14a835.224 835.224 0 01-60-59c-15.019-17.353-27.019-36.686-36-58a137.798 137.798 0 01-7.5-27 8.43 8.43 0 01.5-4 63.69 63.69 0 006.5 15 7.248 7.248 0 01-2 2.5 7.492 7.492 0 015 .5 4.457 4.457 0 01-2 1.5 10.756 10.756 0 013 2.5 4.457 4.457 0 001.5-2c1.934 1.919 1.767 3.419-.5 4.5 1.694 1.728 2.861 1.228 3.5-1.5.667 1.333 1.333 1.333 2 0 .617.949.451 1.782-.5 2.5 1.82.979 2.987 2.479 3.5 4.5l1-3a127.818 127.818 0 002 3 40.179 40.179 0 006-2c.492 1.049.326 2.049-.5 3a4.457 4.457 0 001.5 2c.694-3.502.194-6.836-1.5-10 .043-.916.376-1.583 1-2z"/><path fill="#24b3b7" d="M568.5 515.5a2.428 2.428 0 01-.5 2 2863.637 2863.637 0 01-45.5 45c-1.079.064-2.079-.436-3-1.5a153.941 153.941 0 014-4c-1.544-.29-2.877-.956-4-2-.079-1.907.254-3.907 1-6l-4-6 1-1a6.978 6.978 0 01-2.5-3.5c-1.758.969-2.258 2.136-1.5 3.5-1.333.667-2.667.667-4 0a14.698 14.698 0 003-3.5c10.28-9.945 20.613-19.945 31-30 1.517.011 2.684.677 3.5 2a14.972 14.972 0 003.5-3c1.196.346 1.196.846 0 1.5 1.601.273 3.101.773 4.5 1.5l1-1c1.916 1.428 4.083 2.428 6.5 3-.826.951-.992 1.951-.5 3 1.956-.284 4.123-.284 6.5 0z"/><path fill="#3ad2c4" d="M829.5 506.5h9c-.284 1.915.049 3.581 1 5a18.67 18.67 0 00-3 5 1233.065 1233.065 0 01-86 .5 84.8 84.8 0 01-10.5-1.5 172.833 172.833 0 00-25.5 28.5c-3.399.546-6.732.213-10-1-.951-.718-1.117-1.551-.5-2.5a356.549 356.549 0 0121-24 137.647 137.647 0 005.5-9.5c32.998-.5 65.998-.667 99-.5z"/><path fill="#2ac0bd" d="M621.5 522.5c.418.722 1.084 1.222 2 1.5-.78 1.073-.613 2.24.5 3.5.741-1.141 1.575-1.141 2.5 0a4.457 4.457 0 001.5-2 13.92 13.92 0 004 3c.914-1.154 1.747-.987 2.5.5-2.528.669-2.528 1.502 0 2.5 3.474-2.164 3.808-1.331 1 2.5.84 1.171 1.673 2.338 2.5 3.5l1-1a19.602 19.602 0 013.5 2 610.277 610.277 0 00-51 26c-1.02-1.454-2.187-1.787-3.5-1a11.333 11.333 0 00-3.5-1.5l5-1a76.408 76.408 0 01-12-8c1.398-1.649 1.064-2.982-1-4 1.407-1.452 2.907-1.285 4.5.5a15.256 15.256 0 011.5-4.5 2.428 2.428 0 00-2-.5c12.868-8.604 26.535-15.937 41-22z"/><path fill="#eac44f" d="M837.5 562.5c-.992 7.482-1.325 15.148-1 23-9.848-.327-19.514.006-29 1h-8v-1c-2.469-.817-5.135-1.317-8-1.5-.935-2.381-1.268-4.881-1-7.5a361.608 361.608 0 0038-1v-22c3.307.551 6.64.884 10 1a24.93 24.93 0 01-1 8z"/><path fill="#2ab5b9" d="M580.5 544.5a2.428 2.428 0 012 .5 15.256 15.256 0 00-1.5 4.5c-1.593-1.785-3.093-1.952-4.5-.5 2.064 1.018 2.398 2.351 1 4a76.408 76.408 0 0012 8l-5 1c1.266.309 2.433.809 3.5 1.5 1.313-.787 2.48-.454 3.5 1a256.134 256.134 0 00-35 31c-.709-.904-1.709-1.237-3-1-1.157-2.848-.824-5.348 1-7.5-1.244-.456-2.077.044-2.5 1.5a39.027 39.027 0 00-4.5-4.5l4-1c-1.655-1.444-2.322-3.278-2-5.5l-10 4c11.52-14.86 25.186-27.193 41-37z"/><path fill="#32c8c1" d="M338.5 560.5a272.447 272.447 0 0125 8c-.03.997.47 1.664 1.5 2a97.58 97.58 0 018.5 3c-.552 1.831-.552 3.497 0 5-3.626 2.197-3.293 4.197 1 6-1.141.925-1.141 1.759 0 2.5a22.981 22.981 0 005 2 8.43 8.43 0 01-4 .5 131.125 131.125 0 01-19-4.5 60.931 60.931 0 00-11-.5c.763-.768 1.763-1.268 3-1.5a233.482 233.482 0 01-20-6.5c4.164.165 8.497-.335 13-1.5l-1-1c1.635-.54 2.968-.04 4 1.5l1-2c3.349 1.33 3.682.83 1-1.5.845-1.558.179-2.558-2-3l3-1c-1.26-1.113-2.427-1.28-3.5-.5l-2.5-3c.011.941-.489 1.608-1.5 2a12.793 12.793 0 01-4.5-2l2-2c-1.481-1.444-1.148-2.111 1-2z"/><path fill="#1994a0" d="M655.5 571.5a84.902 84.902 0 0113 .5l-7 1c1.973.495 3.973.662 6 .5.285 1.788-.048 3.455-1 5-4.007 1.164-7.507 3.164-10.5 6-2.513-1.75-5.346-1.916-8.5-.5l1 1a7.248 7.248 0 00-2 2.5 74.086 74.086 0 0012 1.5c-4.851.174-9.518.674-14 1.5-23.007.1-44.84 5.1-65.5 15-.667-.667-.667-1.333 0-2 21.419-20.094 46.919-30.76 76.5-32z"/><path fill="#1ca8b0" d="M703.5 572.5c1.109.79 2.442 1.29 4 1.5l-4 1a73.619 73.619 0 0111 2c-2.431.295-4.264 1.462-5.5 3.5-.324-2.069-1.158-2.402-2.5-1-1.021.502-1.188 1.168-.5 2 .914-1.154 1.747-.987 2.5.5l-5 1c1.333 1 1.333 2 0 3-1.284.684-2.451.517-3.5-.5-1.408 5.668-4.741 7.334-10 5a7.248 7.248 0 01-2.5 2c-3.467-1.288-6.8-1.288-10 0a258.82 258.82 0 00-33-2c4.482-.826 9.149-1.326 14-1.5a74.086 74.086 0 01-12-1.5 7.248 7.248 0 012-2.5l-1-1c3.154-1.416 5.987-1.25 8.5.5 2.993-2.836 6.493-4.836 10.5-6 .952-1.545 1.285-3.212 1-5a18.453 18.453 0 01-6-.5l7-1a84.902 84.902 0 00-13-.5 284.37 284.37 0 0115.5-2 345.867 345.867 0 0132.5 3z"/><path fill="#24b4b7" d="M703.5 572.5c8.93.92 17.596 2.587 26 5-.763.768-1.763 1.268-3 1.5 2.399 1.96 2.565 4.126.5 6.5-.914-1.154-1.747-.987-2.5.5l1 1-3 1a20.532 20.532 0 01-2.5 4.5c-1.049-1.017-2.216-1.184-3.5-.5-.577 1.714-2.077 3.214-4.5 4.5-.914-1.154-1.747-.987-2.5.5 3.029.539 6.029 1.206 9 2a4.934 4.934 0 01-3 .5 479.293 479.293 0 01-38-7c3.2-1.288 6.533-1.288 10 0a7.248 7.248 0 002.5-2c5.259 2.334 8.592.668 10-5 1.049 1.017 2.216 1.184 3.5.5 1.333-1 1.333-2 0-3l5-1c-.753-1.487-1.586-1.654-2.5-.5-.688-.832-.521-1.498.5-2 1.342-1.402 2.176-1.069 2.5 1 1.236-2.038 3.069-3.205 5.5-3.5a73.619 73.619 0 00-11-2l4-1c-1.558-.21-2.891-.71-4-1.5z"/><path fill="#e6b019" d="M789.5 575.5h39a361.608 361.608 0 01-38 1c-.268 2.619.065 5.119 1 7.5 2.865.183 5.531.683 8 1.5h-10v-10z"/><path fill="#3fd2c4" d="M751.5 582.5a347.006 347.006 0 0037 3c3.462.982 7.129 1.315 11 1h5a195.006 195.006 0 01-11.5 12 22.703 22.703 0 01-5-2c.263-1.451.096-2.784-.5-4-11.059 5.348-22.725 8.348-35 9-5.151-.827-10.484-1.327-16-1.5l2-2c-.468-1.822-.801-3.989-1-6.5h4c.013-2.861 1.179-3.861 3.5-3 2.185-1.17 4.351-2.336 6.5-3.5-3.956-1.114-3.956-1.947 0-2.5z"/><path fill="#d5d289" d="M789.5 575.5v10h10v1c-3.871.315-7.538-.018-11-1-.313-3.542.021-6.875 1-10z"/><path fill="#e4b21a" d="M837.5 562.5v24h-30c9.486-.994 19.152-1.327 29-1-.325-7.852.008-15.518 1-23z" opacity=".798"/><path fill="#21abb2" d="M363.5 568.5c19.743 5.46 38.076 13.793 55 25-1.25.077-2.083.744-2.5 2-.388-.928-1.055-1.595-2-2-2.414 1.584-5.08 2.584-8 3a2281.78 2281.78 0 01-30.5-7 8.43 8.43 0 004-.5 22.981 22.981 0 01-5-2c-1.141-.741-1.141-1.575 0-2.5-4.293-1.803-4.626-3.803-1-6-.552-1.503-.552-3.169 0-5a97.58 97.58 0 00-8.5-3c-1.03-.336-1.53-1.003-1.5-2z"/><path fill="#2cc7bf" d="M729.5 577.5a266.482 266.482 0 0122 5c-3.956.553-3.956 1.386 0 2.5-2.149 1.164-4.315 2.33-6.5 3.5-2.321-.861-3.487.139-3.5 3h-4c.199 2.511.532 4.678 1 6.5l-2 2c5.516.173 10.849.673 16 1.5-9.339.166-18.673 0-28-.5-3.195-.181-6.195-.681-9-1.5a4.934 4.934 0 003-.5 108.394 108.394 0 00-9-2c.753-1.487 1.586-1.654 2.5-.5 2.423-1.286 3.923-2.786 4.5-4.5 1.284-.684 2.451-.517 3.5.5a20.532 20.532 0 002.5-4.5l3-1-1-1c.753-1.487 1.586-1.654 2.5-.5 2.065-2.374 1.899-4.54-.5-6.5 1.237-.232 2.237-.732 3-1.5z"/><path fill="#1696a2" d="M345.5 584.5a60.931 60.931 0 0111 .5 131.125 131.125 0 0019 4.5 2281.78 2281.78 0 0030.5 7c2.92-.416 5.586-1.416 8-3 .945.405 1.612 1.072 2 2 .417-1.256 1.25-1.923 2.5-2 25.433 14.245 42.266 35.245 50.5 63-23.043-35.769-55.876-51.603-98.5-47.5a134.22 134.22 0 00-22 6 399.838 399.838 0 01-36 15c-11.46 3.626-23.126 4.792-35 3.5-.763-.768-1.763-1.268-3-1.5l2-1c-1.167-.5-2-1.333-2.5-2.5-4.474 1.265-4.641.599-.5-2a3.647 3.647 0 00-1-1.5 129.266 129.266 0 018-11.5l1 2c.563-2.209 1.896-3.709 4-4.5-1.333-1.84-1.166-2.34.5-1.5a4.934 4.934 0 00.5-3 9.108 9.108 0 00-5 1c-.963-.47-.963-1.137 0-2a664.76 664.76 0 0145-18.5c6.386-1.939 12.719-2.772 19-2.5z"/><path fill="#1faab2" d="M556.5 595.5c-15.184 20.375-25.518 43.041-31 68h-1c-1.418-1.808-3.418-2.475-6-2-.14-1.624.527-2.79 2-3.5l-1-1a4.934 4.934 0 013-.5 4.934 4.934 0 01.5-3 7.293 7.293 0 002 3c.262-4.247-.905-8.08-3.5-11.5l2-1c-2.968-1.263-3.968-3.263-3-6l-2-1c.951-.718 1.117-1.551.5-2.5l-3 1-1.5-1.5 3-5c-1.801-.317-2.134-.984-1-2-2.153-1.891-2.82-4.057-2-6.5-1.493-.641-2.493-1.641-3-3 1.808.817 3.308.15 4.5-2 6.526-12.338 14.36-23.672 23.5-34l10-4c-.322 2.222.345 4.056 2 5.5l-4 1a39.027 39.027 0 014.5 4.5c.423-1.456 1.256-1.956 2.5-1.5-1.824 2.152-2.157 4.652-1 7.5 1.291-.237 2.291.096 3 1z"/><path fill="#1ba1ab" d="M281.5 605.5c-.963.863-.963 1.53 0 2a9.108 9.108 0 015-1 4.934 4.934 0 01-.5 3c-1.666-.84-1.833-.34-.5 1.5-2.104.791-3.437 2.291-4 4.5l-1-2a129.266 129.266 0 00-8 11.5c.457.414.791.914 1 1.5-4.141 2.599-3.974 3.265.5 2 .5 1.167 1.333 2 2.5 2.5l-2 1c1.237.232 2.237.732 3 1.5-19.293-3.479-35.96-11.979-50-25.5 18.16 5.003 36.16 4.169 54-2.5z"/><path fill="#26bebc" d="M639.5 611.5c-1.068.934-2.401 1.268-4 1v3c-3.515.33-6.848.497-10 .5l1 1c-2.119.098-3.786.931-5 2.5.855.793 1.689.46 2.5-1l1.5 1.5c-1.449 1.117-3.116 1.784-5 2 1.456.423 1.956 1.256 1.5 2.5l-1-1a6.978 6.978 0 01-3.5 2.5c.165 1.117.498 2.284 1 3.5-1.306 1.412-2.14 3.079-2.5 5a9.454 9.454 0 01-2.5 1.5l15 1a12.93 12.93 0 01-5 .5c-16.143-.621-31.809 1.713-47 7-.763-.768-1.763-1.268-3-1.5 2.491-.626 2.491-1.459 0-2.5 3.362-2.382 3.695-5.049 1-8a35.193 35.193 0 011-4.5c-2.183-1.205-3.516-2.705-4-4.5 10.227-6.802 21.56-10.969 34-12.5 11.089-1.361 22.423-1.195 34 .5z"/><path fill="#3ad0c3" d="M639.5 611.5a748.689 748.689 0 0056 9.5 228.345 228.345 0 0055-.5l2 1c-27.772 19.058-58.439 26.225-92 21.5a3051.978 3051.978 0 00-37-5.5 12.93 12.93 0 005-.5l-15-1a9.454 9.454 0 002.5-1.5c.36-1.921 1.194-3.588 2.5-5-.502-1.216-.835-2.383-1-3.5a6.978 6.978 0 003.5-2.5l1 1c.456-1.244-.044-2.077-1.5-2.5 1.884-.216 3.551-.883 5-2l-1.5-1.5c-.811 1.46-1.645 1.793-2.5 1 1.214-1.569 2.881-2.402 5-2.5l-1-1c3.152-.003 6.485-.17 10-.5v-3c1.599.268 2.932-.066 4-1z"/><path fill="#24afb5" d="M571.5 623.5c.484 1.795 1.817 3.295 4 4.5a35.193 35.193 0 00-1 4.5c2.695 2.951 2.362 5.618-1 8 2.491 1.041 2.491 1.874 0 2.5 1.237.232 2.237.732 3 1.5-10.534 4.759-20.2 10.759-29 18a19.22 19.22 0 001-6c-3.949-.193-3.949-.693 0-1.5-2.488-1.685-2.155-3.019 1-4-.388-1.808-.388-3.475 0-5 2.491-.626 2.491-1.459 0-2.5a18.08 18.08 0 012-3.5 2.428 2.428 0 00-2-.5 86.773 86.773 0 0122-16z"/><path fill="#43d4c6" d="M159.5 539.5c19.485-1.02 27.319 7.98 23.5 27-1.91 5.409-5.41 9.409-10.5 12-.843 5.277-1.177 10.443-1 15.5a1613.74 1613.74 0 002.5 41.5c4.05 18.373 15.55 27.54 34.5 27.5 41.219.553 82.219.387 123-.5 24.671.297 49.337.797 74 1.5 7.932 1.942 14.932 5.609 21 11a2636.192 2636.192 0 0142 44.5 64.292 64.292 0 01-6.5 7 1371.94 1371.94 0 01-43.5-44.5c-4.109-3.388-8.775-5.721-14-7a6973.51 6973.51 0 00-192 .5c-29.587-.092-46.087-14.759-49.5-44a2312.872 2312.872 0 01-1.5-52c-9.66-3.192-14.66-10.026-15-20.5.583-9.07 4.917-15.57 13-19.5zm2 11c10.052-1.453 13.885 2.547 11.5 12-4.648 7.343-9.648 7.676-15 1-2.009-5.145-.843-9.479 3.5-13z"/><path fill="#eac34d" d="M800.5 653.5h4a180.81 180.81 0 011 24c-6.035.037-12.035.537-18 1.5a68.637 68.637 0 01-16.5 17.5 3.647 3.647 0 00-1.5-1 9947.863 9947.863 0 01-140 1.5c-4.758-.035-9.091 1.298-13 4a713.765 713.765 0 01-54.5 55.5 682.817 682.817 0 01-43 45 682.033 682.033 0 001 62c11.049 6.147 14.382 15.147 10 27-7.166 9.578-16 11.411-26.5 5.5-8.125-7.985-9.125-16.819-3-26.5a26.002 26.002 0 017-5c.048-21.976.215-43.976.5-66l2-4A7722.627 7722.627 0 00612.5 689a35.716 35.716 0 019-3l147-1a181.417 181.417 0 0015.5-16.5 102.63 102.63 0 011.5-13c5.151-.667 10.151-1.334 15-2z"/><path fill="#1ba2ac" d="M470.5 561.5c17.496 15.834 31.162 34.501 41 56 .507 1.359 1.507 2.359 3 3-.82 2.443-.153 4.609 2 6.5-1.134 1.016-.801 1.683 1 2l-3 5 1.5 1.5 3-1c.617.949.451 1.782-.5 2.5l2 1c-.968 2.737.032 4.737 3 6l-2 1c2.595 3.42 3.762 7.253 3.5 11.5a7.293 7.293 0 01-2-3 4.934 4.934 0 00-.5 3 4.934 4.934 0 00-3 .5l1 1c-1.473.71-2.14 1.876-2 3.5 2.582-.475 4.582.192 6 2 .333 1.333.667 1.333 1 0a407.877 407.877 0 0124-24 2.428 2.428 0 012 .5 18.08 18.08 0 00-2 3.5c2.491 1.041 2.491 1.874 0 2.5-.388 1.525-.388 3.192 0 5-3.155.981-3.488 2.315-1 4-3.949.807-3.949 1.307 0 1.5a19.22 19.22 0 01-1 6 167.158 167.158 0 00-25 36c-.763-.768-1.763-1.268-3-1.5a13.92 13.92 0 003-4c-1.333-1.333-1.333-2.667 0-4-2.102-1.733-2.435-3.733-1-6-2.363-.589-3.363-2.089-3-4.5 1.175.219 2.175-.114 3-1a12.403 12.403 0 00-4-2.5l1-1a4.457 4.457 0 01-2-1.5c1.625-.679 2.958-1.845 4-3.5a18.27 18.27 0 00-4-5l2-1c-1.824-2.152-2.157-4.652-1-7.5a4.934 4.934 0 01-3-.5c1.134-1.016.801-1.683-1-2-.007-1.583.326-3.249 1-5a42.88 42.88 0 01-4.5-6.5c-3.611-13.564-9.778-26.23-18.5-38a111.515 111.515 0 00-5-11c-1.11-2.678-3.11-5.178-6-7.5 1.017-1.049 1.184-2.216.5-3.5-5.93-5.42-9.43-12.087-10.5-20z"/><path fill="#3ed4c6" d="M635.5 713.5c29.968.977 59.968 1.31 90 1a145.035 145.035 0 01-1 21 188.576 188.576 0 01-17-1.5c-.38-2.889-.714-5.723-1-8.5-22.484-.227-44.817.106-67 1a3629.597 3629.597 0 01-86 89.5c-7.575 1.921-10.075-.912-7.5-8.5a11793.46 11793.46 0 0089.5-94z"/><path fill="#42d4c6" d="M288.5 697.5a1586.368 1586.368 0 0096 .5 765.925 765.925 0 0155.5 58.5 581.022 581.022 0 001.5 34c12.291 6.707 15.458 16.374 9.5 29-9.632 10.291-19.632 10.624-30 1-5.662-12.017-3.162-22.017 7.5-30a150.545 150.545 0 00.5-30L381.5 711a2468.095 2468.095 0 00-121-1.5v-11c9.515.327 18.848-.006 28-1zm145 103c9.618-.229 12.784 4.104 9.5 13-3.139 4.077-6.972 4.91-11.5 2.5-4.102-5.683-3.435-10.85 2-15.5z"/><path fill="#fefcf7" d="M510.5 873.5c10.355-.462 13.355 4.038 9 13.5-9.679 3.983-13.846.816-12.5-9.5a19.552 19.552 0 003.5-4z"/></svg>