<?xml version="1.0" encoding="UTF-8"?>
<!DOCTYPE svg PUBLIC "-//W3C//DTD SVG 1.1//EN" "http://www.w3.org/Graphics/SVG/1.1/DTD/svg11.dtd">
<svg xmlns="http://www.w3.org/2000/svg" version="1.1" width="1024px" height="1024px" style="shape-rendering:geometricPrecision; text-rendering:geometricPrecision; image-rendering:optimizeQuality; fill-rule:evenodd; clip-rule:evenodd" xmlns:xlink="http://www.w3.org/1999/xlink">
<g><path style="opacity:1" fill="#d7f4e9" d="M 272.5,152.5 C 288.814,152.878 305.148,153.045 321.5,153C 322.491,169.089 322.825,185.256 322.5,201.5C 334.5,201.5 346.5,201.5 358.5,201.5C 358.667,216.17 358.5,230.837 358,245.5C 343.912,246.49 329.745,246.824 315.5,246.5C 315.5,233.167 315.5,219.833 315.5,206.5C 300.833,206.5 286.167,206.5 271.5,206.5C 271.181,188.423 271.514,170.423 272.5,152.5 Z M 321.5,208.5 C 331.833,208.5 342.167,208.5 352.5,208.5C 352.5,219.167 352.5,229.833 352.5,240.5C 342.251,240.819 332.084,240.486 322,239.5C 322.426,228.702 322.259,218.369 321.5,208.5 Z"/></g>
<g><path style="opacity:1" fill="#40d4c6" d="M 525.5,113.5 C 537.442,132.35 542.609,153.016 541,175.5C 537.199,198.765 528.199,219.765 514,238.5C 501,255.167 488,271.833 475,288.5C 485.991,260.83 497.324,233.164 509,205.5C 513.344,192.998 516.511,180.332 518.5,167.5C 519.84,168.294 520.007,166.294 519,161.5C 518.29,160.027 517.124,159.36 515.5,159.5C 515.43,154.392 516.097,149.392 517.5,144.5C 516.687,143.186 515.687,142.019 514.5,141C 515.701,140.097 516.535,138.931 517,137.5C 518.958,127.797 520.291,118.464 521,109.5C 521.876,111.635 523.376,112.969 525.5,113.5 Z"/></g>
<g><path style="opacity:1" fill="#d3f2e7" d="M 383.5,185.5 C 387.634,184.515 391.968,184.182 396.5,184.5C 396.5,188.5 396.5,192.5 396.5,196.5C 392.154,196.666 387.821,196.499 383.5,196C 383.523,192.401 383.523,188.901 383.5,185.5 Z"/></g>
<g><path style="opacity:1" fill="#2fc9c1" d="M 525.5,113.5 C 523.376,112.969 521.876,111.635 521,109.5C 520.291,118.464 518.958,127.797 517,137.5C 516.535,138.931 515.701,140.097 514.5,141C 515.687,142.019 516.687,143.186 517.5,144.5C 516.097,149.392 515.43,154.392 515.5,159.5C 517.124,159.36 518.29,160.027 519,161.5C 520.007,166.294 519.84,168.294 518.5,167.5C 518.66,165.801 518.494,164.134 518,162.5C 500.912,191.685 482.579,220.018 463,247.5C 454.125,262.249 446.625,277.583 440.5,293.5C 435.633,295.597 434.633,294.597 437.5,290.5C 435.713,289.684 434.046,288.684 432.5,287.5C 432.167,287.667 431.833,287.833 431.5,288C 433.848,289.688 434.015,291.522 432,293.5C 429.457,292.124 429.291,290.957 431.5,290C 428.584,287.929 428.918,286.595 432.5,286C 432.167,285.667 431.833,285.333 431.5,285C 434.15,281.793 433.984,281.293 431,283.5C 429.979,280.895 429.145,278.228 428.5,275.5C 428.968,273.866 429.968,272.7 431.5,272C 430.833,271.333 430.167,270.667 429.5,270C 430.833,269 430.833,268 429.5,267C 432.028,265.684 432.028,264.517 429.5,263.5C 430.729,262.719 432.062,262.219 433.5,262C 432.833,261.667 432.167,261.333 431.5,261C 432.833,260.333 432.833,259.667 431.5,259C 432.167,258.667 432.833,258.333 433.5,258C 432.044,257.577 431.544,256.744 432,255.5C 434.929,257.184 437.762,256.684 440.5,254C 436.646,251.634 436.979,249.634 441.5,248C 439.009,247.374 439.009,246.541 441.5,245.5C 439.816,244.146 439.316,242.479 440,240.5C 440.423,241.956 441.256,242.456 442.5,242C 441.833,240.667 441.167,239.333 440.5,238C 441.167,237.667 441.833,237.333 442.5,237C 440.808,235.599 440.141,233.766 440.5,231.5C 454.002,210.16 468.502,189.493 484,169.5C 494.496,154.658 502.83,138.658 509,121.5C 511.802,112.977 511.969,104.477 509.5,96C 510,95.5 510.5,95 511,94.5C 516.327,100.504 521.161,106.837 525.5,113.5 Z"/></g>
<g><path style="opacity:0.29" fill="#9cf2df" d="M 683.5,200.5 C 698.324,199.504 713.324,199.171 728.5,199.5C 728.5,201.833 728.5,204.167 728.5,206.5C 710.833,206.5 693.167,206.5 675.5,206.5C 675.205,204.265 675.539,202.265 676.5,200.5C 676.5,202.167 676.5,203.833 676.5,205.5C 693.503,205.667 710.503,205.5 727.5,205C 710.837,204.5 694.17,204.333 677.5,204.5C 677.5,203.5 677.5,202.5 677.5,201.5C 694.17,201.667 710.837,201.5 727.5,201C 712.837,200.5 698.17,200.333 683.5,200.5 Z"/></g>
<g><path style="opacity:1" fill="#5deccf" d="M 676.5,200.5 C 678.833,200.5 681.167,200.5 683.5,200.5C 698.17,200.333 712.837,200.5 727.5,201C 710.837,201.5 694.17,201.667 677.5,201.5C 677.5,202.5 677.5,203.5 677.5,204.5C 694.17,204.333 710.837,204.5 727.5,205C 710.503,205.5 693.503,205.667 676.5,205.5C 676.5,203.833 676.5,202.167 676.5,200.5 Z"/></g>
<g><path style="opacity:1" fill="#ebc658" d="M 762.5,194.5 C 761.672,200.987 761.172,207.654 761,214.5C 759.943,206.536 759.277,198.536 759,190.5C 758.5,197.826 758.334,205.159 758.5,212.5C 750.493,212.334 742.493,212.5 734.5,213C 742.167,213.333 749.833,213.667 757.5,214C 757.5,215 757.5,216 757.5,217C 748.506,217.5 739.506,217.666 730.5,217.5C 730.667,206.162 730.5,194.828 730,183.5C 729.5,195.162 729.333,206.829 729.5,218.5C 729.167,218.5 728.833,218.5 728.5,218.5C 728.5,214.5 728.5,210.5 728.5,206.5C 728.5,204.167 728.5,201.833 728.5,199.5C 728.5,193.833 728.5,188.167 728.5,182.5C 739.876,182.544 751.043,182.544 762,182.5C 762.246,185.89 762.746,189.223 763.5,192.5C 763.137,193.183 762.804,193.85 762.5,194.5 Z M 735.5,190.5 C 742.833,190.5 750.167,190.5 757.5,190.5C 757.5,197.5 757.5,204.5 757.5,211.5C 749.826,211.666 742.159,211.5 734.5,211C 735.479,204.256 735.812,197.422 735.5,190.5 Z"/></g>
<g><path style="opacity:1" fill="#ecbc42" d="M 762.5,194.5 C 762.572,201.383 762.739,208.383 763,215.5C 762.578,217.426 761.411,218.426 759.5,218.5C 755.833,218.5 752.167,218.5 748.5,218.5C 742.167,218.5 735.833,218.5 729.5,218.5C 729.333,206.829 729.5,195.162 730,183.5C 730.5,194.828 730.667,206.162 730.5,217.5C 739.506,217.666 748.506,217.5 757.5,217C 757.5,216 757.5,215 757.5,214C 749.833,213.667 742.167,213.333 734.5,213C 742.493,212.5 750.493,212.334 758.5,212.5C 758.334,205.159 758.5,197.826 759,190.5C 759.277,198.536 759.943,206.536 761,214.5C 761.172,207.654 761.672,200.987 762.5,194.5 Z M 735.5,190.5 C 735.812,197.422 735.479,204.256 734.5,211C 742.159,211.5 749.826,211.666 757.5,211.5C 757.5,204.5 757.5,197.5 757.5,190.5C 750.167,190.5 742.833,190.5 735.5,190.5 Z"/></g>
<g><path style="opacity:0.269" fill="#c0f2e1" d="M 728.5,218.5 C 728.833,218.5 729.167,218.5 729.5,218.5C 735.833,218.5 742.167,218.5 748.5,218.5C 748.5,241.833 748.5,265.167 748.5,288.5C 747.502,265.673 747.169,242.673 747.5,219.5C 741.039,220.209 734.706,219.876 728.5,218.5 Z"/></g>
<g><path style="opacity:1" fill="#65e4d0" d="M 607.5,270.5 C 606.957,270.56 606.624,270.893 606.5,271.5C 607.64,275.81 609.473,279.81 612,283.5C 612.667,284.5 612.667,285.5 612,286.5C 610.74,282.469 608.74,281.802 606,284.5C 603.432,284.049 601.098,283.049 599,281.5C 598.667,281.833 598.333,282.167 598,282.5C 596.748,280.999 595.748,279.332 595,277.5C 593.969,280.539 592.135,283.039 589.5,285C 588.939,286.566 589.606,287.899 591.5,289C 590.874,289.75 590.374,290.584 590,291.5C 587.139,291.092 586.972,291.925 589.5,294C 588.833,295 588.167,296 587.5,297C 588.867,299.301 589.534,301.801 589.5,304.5C 583.284,289.74 574.784,276.407 564,264.5C 564.765,259.945 566.432,255.612 569,251.5C 573.345,244.812 577.179,237.812 580.5,230.5C 591.875,242.212 600.875,255.545 607.5,270.5 Z"/></g>
<g><path style="opacity:1" fill="#2bc3be" d="M 440.5,231.5 C 440.141,233.766 440.808,235.599 442.5,237C 441.833,237.333 441.167,237.667 440.5,238C 441.167,239.333 441.833,240.667 442.5,242C 441.256,242.456 440.423,241.956 440,240.5C 439.316,242.479 439.816,244.146 441.5,245.5C 439.009,246.541 439.009,247.374 441.5,248C 436.979,249.634 436.646,251.634 440.5,254C 437.762,256.684 434.929,257.184 432,255.5C 431.544,256.744 432.044,257.577 433.5,258C 432.833,258.333 432.167,258.667 431.5,259C 432.833,259.667 432.833,260.333 431.5,261C 432.167,261.333 432.833,261.667 433.5,262C 432.062,262.219 430.729,262.719 429.5,263.5C 432.028,264.517 432.028,265.684 429.5,267C 430.833,268 430.833,269 429.5,270C 430.167,270.667 430.833,271.333 431.5,272C 429.968,272.7 428.968,273.866 428.5,275.5C 429.145,278.228 429.979,280.895 431,283.5C 433.984,281.293 434.15,281.793 431.5,285C 431.833,285.333 432.167,285.667 432.5,286C 428.918,286.595 428.584,287.929 431.5,290C 429.291,290.957 429.457,292.124 432,293.5C 434.015,291.522 433.848,289.688 431.5,288C 431.833,287.833 432.167,287.667 432.5,287.5C 434.046,288.684 435.713,289.684 437.5,290.5C 434.633,294.597 435.633,295.597 440.5,293.5C 432.755,316.149 426.755,339.149 422.5,362.5C 422.336,359.252 421.336,356.252 419.5,353.5C 415.79,351.589 414.456,348.756 415.5,345C 414.285,342.904 413.451,343.071 413,345.5C 411.176,344.251 411.343,343.085 413.5,342C 412.711,339.733 412.044,337.4 411.5,335C 414.288,332.926 413.955,331.426 410.5,330.5C 409.549,331.326 408.549,331.492 407.5,331C 408.833,330.333 408.833,329.667 407.5,329C 408.167,328.667 408.833,328.333 409.5,328C 409.384,326.732 409.051,325.398 408.5,324C 410.95,322.386 410.783,320.886 408,319.5C 407.127,319.735 406.293,320.069 405.5,320.5C 404.83,318.709 404.163,317.042 403.5,315.5C 411.509,285.492 423.842,257.492 440.5,231.5 Z"/></g>
<g><path style="opacity:1" fill="#7dedd6" d="M 748.5,218.5 C 752.167,218.5 755.833,218.5 759.5,218.5C 758.081,219.451 756.415,219.784 754.5,219.5C 753.938,225.889 754.272,232.389 755.5,239C 755.442,255.344 755.442,271.844 755.5,288.5C 753.167,288.5 750.833,288.5 748.5,288.5C 748.5,265.167 748.5,241.833 748.5,218.5 Z"/></g>
<g><path style="opacity:1" fill="#25bbbb" d="M 316.5,283.5 C 325.896,290.561 333.896,298.895 340.5,308.5C 340.95,325.149 340.284,341.982 338.5,359C 338.735,359.873 339.069,360.707 339.5,361.5C 339.154,362.696 338.654,362.696 338,361.5C 337.536,362.094 337.369,362.761 337.5,363.5C 332.187,349.209 325.02,335.876 316,323.5C 309.492,315.802 302.992,308.136 296.5,300.5C 299.401,298.124 299.068,296.291 295.5,295C 296.865,293.318 298.365,293.151 300,294.5C 300.617,293.551 300.451,292.718 299.5,292C 300.966,291.365 302.3,290.531 303.5,289.5C 304.675,290.855 305.675,290.688 306.5,289C 305.269,287.817 305.269,286.651 306.5,285.5C 308.595,283.411 310.428,283.411 312,285.5C 313.587,285.658 315.087,284.991 316.5,283.5 Z"/></g>
<g><path style="opacity:1" fill="#57decc" d="M 607.5,270.5 C 615.878,286.633 621.878,303.633 625.5,321.5C 624.752,323.933 623.585,326.266 622,328.5C 621,328.167 620,327.833 619,327.5C 617.663,329.004 615.996,330.004 614,330.5C 612.992,330.018 611.825,329.852 610.5,330C 611.696,329.346 611.696,328.846 610.5,328.5C 608.934,331.407 607.1,334.074 605,336.5C 604.333,335.167 603.667,335.167 603,336.5C 602.667,335.5 602.333,334.5 602,333.5C 601.953,337.816 602.786,341.983 604.5,346C 603.663,347.011 603.33,348.178 603.5,349.5C 599.669,334.335 595.003,319.335 589.5,304.5C 589.534,301.801 588.867,299.301 587.5,297C 588.167,296 588.833,295 589.5,294C 586.972,291.925 587.139,291.092 590,291.5C 590.374,290.584 590.874,289.75 591.5,289C 589.606,287.899 588.939,286.566 589.5,285C 592.135,283.039 593.969,280.539 595,277.5C 595.748,279.332 596.748,280.999 598,282.5C 598.333,282.167 598.667,281.833 599,281.5C 601.098,283.049 603.432,284.049 606,284.5C 608.74,281.802 610.74,282.469 612,286.5C 612.667,285.5 612.667,284.5 612,283.5C 609.473,279.81 607.64,275.81 606.5,271.5C 606.624,270.893 606.957,270.56 607.5,270.5 Z"/></g>
<g><path style="opacity:1" fill="#2dc6bf" d="M 316.5,283.5 C 315.087,284.991 313.587,285.658 312,285.5C 310.428,283.411 308.595,283.411 306.5,285.5C 305.269,286.651 305.269,287.817 306.5,289C 305.675,290.688 304.675,290.855 303.5,289.5C 302.3,290.531 300.966,291.365 299.5,292C 300.451,292.718 300.617,293.551 300,294.5C 298.365,293.151 296.865,293.318 295.5,295C 299.068,296.291 299.401,298.124 296.5,300.5C 294.45,298.763 292.617,296.763 291,294.5C 290.833,295.167 290.667,295.833 290.5,296.5C 292.905,305.164 294.238,313.998 294.5,323C 293.402,338.374 291.735,353.541 289.5,368.5C 289.663,366.143 289.497,363.81 289,361.5C 288.829,366.864 288.329,372.198 287.5,377.5C 287.277,372.862 287.11,368.195 287,363.5C 285.984,364.634 285.317,364.301 285,362.5C 283.456,365.264 282.289,365.097 281.5,362C 282.634,360.984 282.301,360.317 280.5,360C 280.833,359.667 281.167,359.333 281.5,359C 278.956,357.908 276.289,357.241 273.5,357C 273.957,356.586 274.291,356.086 274.5,355.5C 273.011,355.467 271.678,354.967 270.5,354C 271.451,353.282 271.617,352.449 271,351.5C 270,352.5 269,353.5 268,354.5C 267.167,353 266,351.833 264.5,351C 265.833,351 267.167,351 268.5,351C 266.974,347.146 265.641,343.313 264.5,339.5C 267.488,317.734 266.988,296.067 263,274.5C 259.672,260.182 252.005,248.849 240,240.5C 239.333,239.833 239.333,239.167 240,238.5C 269.063,247.769 294.563,262.769 316.5,283.5 Z"/></g>
<g><path style="opacity:1" fill="#2ec6c0" d="M 513.5,320.5 C 522.467,327.799 530.8,335.799 538.5,344.5C 538.062,344.435 537.728,344.601 537.5,345C 538.5,346 539.5,347 540.5,348C 535.563,349.609 532.229,352.776 530.5,357.5C 528.176,357.662 526.509,358.828 525.5,361C 526.96,361.811 527.293,362.645 526.5,363.5C 524.183,361.684 522.016,359.684 520,357.5C 519.601,357.728 519.435,358.062 519.5,358.5C 517.15,357.139 514.816,355.806 512.5,354.5C 513.141,344.832 513.808,335.166 514.5,325.5C 512.576,324.035 512.243,322.368 513.5,320.5 Z"/></g>
<g><path style="opacity:1" fill="#1fb2b7" d="M 513.5,320.5 C 512.243,322.368 512.576,324.035 514.5,325.5C 513.808,335.166 513.141,344.832 512.5,354.5C 512.5,354.833 512.5,355.167 512.5,355.5C 511.833,355.833 511.167,356.167 510.5,356.5C 507.209,356.705 503.876,355.872 500.5,354C 500.957,353.586 501.291,353.086 501.5,352.5C 499.534,348.048 497.367,344.381 495,341.5C 493.333,342.167 491.667,342.833 490,343.5C 490.546,340.907 492.046,338.74 494.5,337C 494.272,336.601 493.938,336.435 493.5,336.5C 499.163,330.004 505.329,324.004 512,318.5C 512.717,319.044 513.217,319.711 513.5,320.5 Z"/></g>
<g><path style="opacity:1" fill="#20b8ba" d="M 403.5,315.5 C 404.163,317.042 404.83,318.709 405.5,320.5C 406.293,320.069 407.127,319.735 408,319.5C 410.783,320.886 410.95,322.386 408.5,324C 409.051,325.398 409.384,326.732 409.5,328C 408.833,328.333 408.167,328.667 407.5,329C 408.833,329.667 408.833,330.333 407.5,331C 408.549,331.492 409.549,331.326 410.5,330.5C 413.955,331.426 414.288,332.926 411.5,335C 412.044,337.4 412.711,339.733 413.5,342C 411.343,343.085 411.176,344.251 413,345.5C 413.451,343.071 414.285,342.904 415.5,345C 414.456,348.756 415.79,351.589 419.5,353.5C 421.336,356.252 422.336,359.252 422.5,362.5C 422.802,365.059 422.468,367.393 421.5,369.5C 421.66,367.801 421.494,366.134 421,364.5C 420.825,368.211 420.325,371.878 419.5,375.5C 418.808,374.975 418.308,374.308 418,373.5C 415.184,375.599 413.684,374.599 413.5,370.5C 409.107,370.543 408.774,370.043 412.5,369C 409.56,368.196 406.893,366.863 404.5,365C 405.5,364.667 406.5,364.333 407.5,364C 406.221,362.354 404.555,361.187 402.5,360.5C 402.468,358.511 401.635,356.511 400,354.5C 399.667,355.5 399.333,356.5 399,357.5C 398.823,353.644 398.323,349.977 397.5,346.5C 398.497,335.851 400.497,325.518 403.5,315.5 Z"/></g>
<g><path style="opacity:1" fill="#49d5c7" d="M 815.5,297.5 C 820.179,297.334 824.845,297.501 829.5,298C 827.662,342.262 827.162,386.762 828,431.5C 819.5,442.667 811,453.833 802.5,465C 791.558,464.296 780.725,464.462 770,465.5C 768.941,465.37 768.108,464.87 767.5,464C 768.444,461.281 768.777,458.448 768.5,455.5C 776.42,455.185 784.253,455.518 792,456.5C 800.724,448.775 808.391,440.109 815,430.5C 816.112,411.529 816.612,392.529 816.5,373.5C 816.316,348.163 815.983,322.83 815.5,297.5 Z"/></g>
<g><path style="opacity:1" fill="#1ea7b0" d="M 493.5,336.5 C 493.938,336.435 494.272,336.601 494.5,337C 492.046,338.74 490.546,340.907 490,343.5C 491.667,342.833 493.333,342.167 495,341.5C 497.367,344.381 499.534,348.048 501.5,352.5C 501.291,353.086 500.957,353.586 500.5,354C 503.876,355.872 507.209,356.705 510.5,356.5C 504.474,362.195 498.474,367.861 492.5,373.5C 489.923,373.877 487.256,373.377 484.5,372C 487.228,371.361 487.728,370.194 486,368.5C 484.092,371.332 483.259,370.999 483.5,367.5C 480.552,367.223 477.719,367.556 475,368.5C 473.47,367.364 472.137,366.364 471,365.5C 470.676,367.569 469.842,367.902 468.5,366.5C 466.922,367.64 465.256,368.14 463.5,368C 465.842,366.608 465.842,365.775 463.5,365.5C 472.831,355.204 482.831,345.538 493.5,336.5 Z"/></g>
<g><path style="opacity:1" fill="#29bdbc" d="M 264.5,339.5 C 265.641,343.313 266.974,347.146 268.5,351C 267.167,351 265.833,351 264.5,351C 266,351.833 267.167,353 268,354.5C 269,353.5 270,352.5 271,351.5C 271.617,352.449 271.451,353.282 270.5,354C 271.678,354.967 273.011,355.467 274.5,355.5C 274.291,356.086 273.957,356.586 273.5,357C 276.289,357.241 278.956,357.908 281.5,359C 281.167,359.333 280.833,359.667 280.5,360C 282.301,360.317 282.634,360.984 281.5,362C 282.289,365.097 283.456,365.264 285,362.5C 285.317,364.301 285.984,364.634 287,363.5C 287.11,368.195 287.277,372.862 287.5,377.5C 288.329,372.198 288.829,366.864 289,361.5C 289.497,363.81 289.663,366.143 289.5,368.5C 289.5,380.167 289.5,391.833 289.5,403.5C 288.778,403.918 288.278,404.584 288,405.5C 287.03,402.556 286.196,399.556 285.5,396.5C 283.302,395.262 281.135,393.928 279,392.5C 274.712,393.237 272.379,391.237 272,386.5C 271.138,388.087 270.471,389.754 270,391.5C 268.01,389.114 266.01,387.447 264,386.5C 263.667,388.833 263.333,391.167 263,393.5C 262.444,391.405 261.944,391.238 261.5,393C 261.945,398.443 261.945,403.943 261.5,409.5C 259.698,386.185 260.698,362.852 264.5,339.5 Z"/></g>
<g><path style="opacity:1" fill="#d4f4e9" d="M 512.5,354.5 C 514.816,355.806 517.15,357.139 519.5,358.5C 527.5,367.167 535.833,375.5 544.5,383.5C 548.088,385.335 549.754,388.001 549.5,391.5C 537.198,402.799 524.865,414.132 512.5,425.5C 512.5,402.167 512.5,378.833 512.5,355.5C 512.5,355.167 512.5,354.833 512.5,354.5 Z"/></g>
<g><path style="opacity:1" fill="#2fb7bb" d="M 538.5,344.5 C 539.239,344.369 539.906,344.536 540.5,345C 550.347,355.014 560.347,364.848 570.5,374.5C 571.827,390.662 571.827,406.662 570.5,422.5C 570.667,406.83 570.5,391.163 570,375.5C 569.667,380.167 569.333,384.833 569,389.5C 568.879,387.273 568.046,385.44 566.5,384C 568.604,382.164 568.938,379.998 567.5,377.5C 567.795,378.826 567.295,380.159 566,381.5C 561.542,380.839 557.208,379.839 553,378.5C 552.664,380.074 551.831,381.408 550.5,382.5C 551.609,383.965 551.109,384.965 549,385.5C 547.981,384.313 546.814,383.313 545.5,382.5C 544.893,382.624 544.56,382.957 544.5,383.5C 535.833,375.5 527.5,367.167 519.5,358.5C 519.435,358.062 519.601,357.728 520,357.5C 522.016,359.684 524.183,361.684 526.5,363.5C 527.293,362.645 526.96,361.811 525.5,361C 526.509,358.828 528.176,357.662 530.5,357.5C 532.229,352.776 535.563,349.609 540.5,348C 539.5,347 538.5,346 537.5,345C 537.728,344.601 538.062,344.435 538.5,344.5 Z"/></g>
<g><path style="opacity:1" fill="#18a3ad" d="M 340.5,308.5 C 360.005,329.191 371.172,353.858 374,382.5C 374.5,394.162 374.667,405.829 374.5,417.5C 373.883,417.389 373.383,417.056 373,416.5C 372.447,419.359 372.614,422.192 373.5,425C 373.231,426.607 372.397,427.774 371,428.5C 370.873,427.223 371.373,426.057 372.5,425C 370.758,422.775 369.591,420.275 369,417.5C 365.614,415.12 362.281,415.12 359,417.5C 358.626,416.584 358.126,415.75 357.5,415C 358.717,412.989 358.384,410.989 356.5,409C 359.167,408 359.167,407 356.5,406C 357.833,405.667 359.167,405.333 360.5,405C 358.084,404.339 356.418,402.839 355.5,400.5C 354.742,401.811 353.742,402.311 352.5,402C 352.833,401.667 353.167,401.333 353.5,401C 351.673,400.101 350.34,398.767 349.5,397C 351.691,395.721 354.025,393.887 356.5,391.5C 355.42,388.952 353.42,386.785 350.5,385C 351.833,384.333 353.167,383.667 354.5,383C 351.833,382.333 349.167,382.333 346.5,383C 347.471,384.204 348.471,384.704 349.5,384.5C 347.563,385.744 345.896,387.244 344.5,389C 344.944,390.762 345.444,390.595 346,388.5C 348.651,389.432 348.985,390.765 347,392.5C 346,391.167 345,391.167 344,392.5C 343.501,396.152 343.335,399.818 343.5,403.5C 342.331,390.178 340.331,376.845 337.5,363.5C 337.369,362.761 337.536,362.094 338,361.5C 338.654,362.696 339.154,362.696 339.5,361.5C 339.069,360.707 338.735,359.873 338.5,359C 340.284,341.982 340.95,325.149 340.5,308.5 Z"/></g>
<g><path style="opacity:1" fill="#87edd9" d="M 512.5,355.5 C 512.5,378.833 512.5,402.167 512.5,425.5C 500.203,414.372 488.036,403.039 476,391.5C 480.446,384.872 485.946,378.872 492.5,373.5C 498.474,367.861 504.474,362.195 510.5,356.5C 511.167,356.167 511.833,355.833 512.5,355.5 Z"/></g>
<g><path style="opacity:1" fill="#49d7c8" d="M 625.5,321.5 C 633.108,349.729 634.108,378.062 628.5,406.5C 628.134,401.532 627.634,401.866 627,407.5C 625.114,401.068 623.947,401.068 623.5,407.5C 622.127,407.657 620.793,407.49 619.5,407C 620.167,406.667 620.833,406.333 621.5,406C 620.333,405.5 619.5,404.667 619,403.5C 616.809,406.482 614.476,406.815 612,404.5C 610.846,405.743 609.512,406.743 608,407.5C 607.667,402.167 607.333,396.833 607,391.5C 606.79,393.058 606.29,394.391 605.5,395.5C 605.873,380.109 605.207,364.776 603.5,349.5C 603.33,348.178 603.663,347.011 604.5,346C 602.786,341.983 601.953,337.816 602,333.5C 602.333,334.5 602.667,335.5 603,336.5C 603.667,335.167 604.333,335.167 605,336.5C 607.1,334.074 608.934,331.407 610.5,328.5C 611.696,328.846 611.696,329.346 610.5,330C 611.825,329.852 612.992,330.018 614,330.5C 615.996,330.004 617.663,329.004 619,327.5C 620,327.833 621,328.167 622,328.5C 623.585,326.266 624.752,323.933 625.5,321.5 Z"/></g>
<g><path style="opacity:1" fill="#eac24b" d="M 839.5,511.5 C 838.549,510.081 838.216,508.415 838.5,506.5C 835.5,506.5 832.5,506.5 829.5,506.5C 841.462,493.37 853.628,480.37 866,467.5C 866.5,445.169 866.667,422.836 866.5,400.5C 870.514,400.334 874.514,400.501 878.5,401C 877.944,425.13 877.111,449.296 876,473.5C 864.695,486.972 852.528,499.639 839.5,511.5 Z"/></g>
<g><path style="opacity:1" fill="#3dd3c5" d="M 708.5,494.5 C 706.629,494.859 705.129,495.859 704,497.5C 701.054,493.237 698.72,493.57 697,498.5C 695.333,497.167 693.667,497.167 692,498.5C 690.933,497.809 689.766,497.309 688.5,497C 689.854,495.706 691.188,495.54 692.5,496.5C 692.833,496 693.167,495.5 693.5,495C 692.195,494.807 690.861,493.807 689.5,492C 693.361,490.657 693.361,489.157 689.5,487.5C 688.5,487.833 687.833,488.5 687.5,489.5C 688.641,490.425 688.641,491.259 687.5,492C 688.167,492.667 688.833,493.333 689.5,494C 686.503,494.488 683.503,494.655 680.5,494.5C 679.232,491.874 679.232,489.707 680.5,488C 682.622,486.919 684.622,486.252 686.5,486C 685.464,484.224 685.464,482.391 686.5,480.5C 703.995,461.511 715.161,439.178 720,413.5C 722.061,400.891 723.728,388.224 725,375.5C 726.37,368.06 728.537,360.893 731.5,354C 729.402,354.032 727.402,354.699 725.5,356C 713.323,363.175 701.99,371.508 691.5,381C 672.778,399.828 655.778,419.328 640.5,439.5C 658.037,367.128 703.037,322.961 775.5,307C 763.101,327.862 755.268,350.362 752,374.5C 752.244,416.764 739.911,454.764 715,488.5C 712.963,490.706 710.797,492.706 708.5,494.5 Z"/></g>
<g><path style="opacity:1" fill="#1eb4b8" d="M 289.5,403.5 C 290.003,409.521 290.669,415.521 291.5,421.5C 290.491,425.178 288.657,428.511 286,431.5C 284.667,430.167 283.333,430.167 282,431.5C 281.221,430.272 280.221,429.272 279,428.5C 274.866,431.708 271.699,431.041 269.5,426.5C 268.252,427.04 267.085,427.707 266,428.5C 265.333,425.167 264.667,421.833 264,418.5C 263.506,420.134 263.34,421.801 263.5,423.5C 262.199,419.057 261.532,414.391 261.5,409.5C 261.945,403.943 261.945,398.443 261.5,393C 261.944,391.238 262.444,391.405 263,393.5C 263.333,391.167 263.667,388.833 264,386.5C 266.01,387.447 268.01,389.114 270,391.5C 270.471,389.754 271.138,388.087 272,386.5C 272.379,391.237 274.712,393.237 279,392.5C 281.135,393.928 283.302,395.262 285.5,396.5C 286.196,399.556 287.03,402.556 288,405.5C 288.278,404.584 288.778,403.918 289.5,403.5 Z"/></g>
<g><path style="opacity:1" fill="#18a3ad" d="M 570.5,422.5 C 570.823,429.022 570.49,435.355 569.5,441.5C 569.666,435.158 569.5,428.825 569,422.5C 568.667,424.833 568.333,427.167 568,429.5C 567.51,428.207 567.343,426.873 567.5,425.5C 564.059,425.285 560.893,425.285 558,425.5C 557.395,423.519 556.395,423.185 555,424.5C 554.29,423.027 553.124,422.36 551.5,422.5C 550.196,415.498 550.196,406.498 551.5,395.5C 551.043,394.702 550.376,394.369 549.5,394.5C 549.5,393.5 549.5,392.5 549.5,391.5C 549.754,388.001 548.088,385.335 544.5,383.5C 544.56,382.957 544.893,382.624 545.5,382.5C 546.814,383.313 547.981,384.313 549,385.5C 551.109,384.965 551.609,383.965 550.5,382.5C 551.831,381.408 552.664,380.074 553,378.5C 557.208,379.839 561.542,380.839 566,381.5C 567.295,380.159 567.795,378.826 567.5,377.5C 568.938,379.998 568.604,382.164 566.5,384C 568.046,385.44 568.879,387.273 569,389.5C 569.333,384.833 569.667,380.167 570,375.5C 570.5,391.163 570.667,406.83 570.5,422.5 Z"/></g>
<g><path style="opacity:1" fill="#4bd8c9" d="M 338.5,560.5 C 336.352,560.389 336.019,561.056 337.5,562.5C 336.833,563.167 336.167,563.833 335.5,564.5C 336.865,565.456 338.365,566.122 340,566.5C 341.011,566.108 341.511,565.441 341.5,564.5C 342.333,565.5 343.167,566.5 344,567.5C 345.073,566.72 346.24,566.887 347.5,568C 346.5,568.333 345.5,568.667 344.5,569C 346.679,569.442 347.345,570.442 346.5,572C 349.182,574.33 348.849,574.83 345.5,573.5C 345.167,574.167 344.833,574.833 344.5,575.5C 343.468,573.96 342.135,573.46 340.5,574C 340.833,574.333 341.167,574.667 341.5,575C 336.997,576.165 332.664,576.665 328.5,576.5C 290.77,563.98 257.436,544.313 228.5,517.5C 188.203,475.288 177.37,426.288 196,370.5C 197.385,371.551 198.385,372.884 199,374.5C 201.963,417.38 214.63,457.046 237,493.5C 256.162,517.992 279.995,536.492 308.5,549C 318.493,553.159 328.493,556.992 338.5,560.5 Z"/></g>
<g><path style="opacity:1" fill="#1faeb5" d="M 397.5,346.5 C 398.323,349.977 398.823,353.644 399,357.5C 399.333,356.5 399.667,355.5 400,354.5C 401.635,356.511 402.468,358.511 402.5,360.5C 404.555,361.187 406.221,362.354 407.5,364C 406.5,364.333 405.5,364.667 404.5,365C 406.893,366.863 409.56,368.196 412.5,369C 408.774,370.043 409.107,370.543 413.5,370.5C 413.684,374.599 415.184,375.599 418,373.5C 418.308,374.308 418.808,374.975 419.5,375.5C 420.325,371.878 420.825,368.211 421,364.5C 421.494,366.134 421.66,367.801 421.5,369.5C 421.326,391.948 424.326,413.948 430.5,435.5C 429.876,435.917 429.543,436.584 429.5,437.5C 431.194,440.664 431.694,443.998 431,447.5C 430.308,446.975 429.808,446.308 429.5,445.5C 430.326,444.549 430.492,443.549 430,442.5C 428.077,443.316 426.077,443.983 424,444.5C 423.454,443.711 422.787,442.711 422,441.5C 421.667,442.5 421.333,443.5 421,444.5C 420.487,442.479 419.32,440.979 417.5,440C 418.451,439.282 418.617,438.449 418,437.5C 417.333,438.833 416.667,438.833 416,437.5C 415.361,440.228 414.194,440.728 412.5,439C 414.767,437.919 414.934,436.419 413,434.5C 412.692,435.308 412.192,435.975 411.5,436.5C 410.646,435.478 409.646,434.645 408.5,434C 409.308,433.692 409.975,433.192 410.5,432.5C 408.892,431.758 407.225,431.591 405.5,432C 406.357,431.311 407.023,430.478 407.5,429.5C 404.709,424.825 402.542,419.825 401,414.5C 400.51,415.793 400.343,417.127 400.5,418.5C 395.104,394.82 394.104,370.82 397.5,346.5 Z"/></g>
<g><path style="opacity:1" fill="#3cd2c5" d="M 549.5,391.5 C 549.5,392.5 549.5,393.5 549.5,394.5C 549.649,406.852 549.315,419.185 548.5,431.5C 547.531,429.337 546.698,427.004 546,424.5C 544.899,426.394 543.566,427.061 542,426.5C 537.802,429.363 533.969,429.03 530.5,425.5C 528.65,426.242 527.984,427.242 528.5,428.5C 525.451,426.534 522.118,426.034 518.5,427C 518.766,430.201 517.6,430.367 515,427.5C 514.667,432.5 514.333,437.5 514,442.5C 513.826,437.649 513.326,432.982 512.5,428.5C 512.5,427.5 512.5,426.5 512.5,425.5C 524.865,414.132 537.198,402.799 549.5,391.5 Z"/></g>
<g><path style="opacity:1" fill="#169ba7" d="M 463.5,365.5 C 465.842,365.775 465.842,366.608 463.5,368C 465.256,368.14 466.922,367.64 468.5,366.5C 469.842,367.902 470.676,367.569 471,365.5C 472.137,366.364 473.47,367.364 475,368.5C 477.719,367.556 480.552,367.223 483.5,367.5C 483.259,370.999 484.092,371.332 486,368.5C 487.728,370.194 487.228,371.361 484.5,372C 487.256,373.377 489.923,373.877 492.5,373.5C 485.946,378.872 480.446,384.872 476,391.5C 488.036,403.039 500.203,414.372 512.5,425.5C 512.5,426.5 512.5,427.5 512.5,428.5C 512.5,436.167 512.5,443.833 512.5,451.5C 512.5,453.5 512.5,455.5 512.5,457.5C 511.691,459.292 511.191,461.292 511,463.5C 509.992,463.018 508.825,462.852 507.5,463C 496.383,454.55 485.883,445.383 476,435.5C 475.389,420.164 474.722,404.831 474,389.5C 473.837,391.676 473.004,393.509 471.5,395C 472,395.5 472.5,396 473,396.5C 473.499,400.152 473.665,403.818 473.5,407.5C 471.227,408.735 469.394,408.402 468,406.5C 467.086,410.185 466.419,409.852 466,405.5C 463.891,406.035 463.391,407.035 464.5,408.5C 463.131,410.124 461.464,410.624 459.5,410C 462.173,408.729 462.173,408.063 459.5,408C 458.874,408.75 458.374,409.584 458,410.5C 457.086,409.346 456.253,409.513 455.5,411C 456.308,411.308 456.975,411.808 457.5,412.5C 456.391,414.385 455.557,416.385 455,418.5C 454.172,409.19 453.672,409.19 453.5,418.5C 451.814,405.027 451.314,391.36 452,377.5C 456.037,373.631 459.87,369.631 463.5,365.5 Z"/></g>
<g><path style="opacity:1" fill="#37cfc3" d="M 628.5,406.5 C 625.47,430.935 617.137,453.269 603.5,473.5C 602.719,471.372 601.719,471.205 600.5,473C 600.833,473.333 601.167,473.667 601.5,474C 599.122,476.649 596.955,479.482 595,482.5C 593.184,481.671 591.351,480.837 589.5,480C 590.328,479.085 591.328,478.419 592.5,478C 590.729,475.887 589.229,476.053 588,478.5C 587.082,476.368 585.749,475.701 584,476.5C 583.085,475.672 582.419,474.672 582,473.5C 580.899,475.394 579.566,476.061 578,475.5C 577.167,471.164 579,469.164 583.5,469.5C 583.579,468.07 583.246,466.736 582.5,465.5C 583.247,465.264 584.08,464.93 585,464.5C 585.333,465.167 585.667,465.833 586,466.5C 586.494,464.866 586.66,463.199 586.5,461.5C 587.552,461.649 588.552,461.483 589.5,461C 588.328,460.581 587.328,459.915 586.5,459C 588.155,457.556 588.822,455.722 588.5,453.5C 598.594,435.064 604.261,415.731 605.5,395.5C 606.29,394.391 606.79,393.058 607,391.5C 607.333,396.833 607.667,402.167 608,407.5C 609.512,406.743 610.846,405.743 612,404.5C 614.476,406.815 616.809,406.482 619,403.5C 619.5,404.667 620.333,405.5 621.5,406C 620.833,406.333 620.167,406.667 619.5,407C 620.793,407.49 622.127,407.657 623.5,407.5C 623.947,401.068 625.114,401.068 627,407.5C 627.634,401.866 628.134,401.532 628.5,406.5 Z"/></g>
<g><path style="opacity:1" fill="#0f919d" d="M 512.5,457.5 C 512.335,460.518 512.502,463.518 513,466.5C 513.308,467.308 513.808,467.975 514.5,468.5C 518.808,465.85 522.474,462.517 525.5,458.5C 533.129,452.041 540.629,445.375 548,438.5C 548.497,436.19 548.663,433.857 548.5,431.5C 549.315,419.185 549.649,406.852 549.5,394.5C 550.376,394.369 551.043,394.702 551.5,395.5C 550.196,406.498 550.196,415.498 551.5,422.5C 553.124,422.36 554.29,423.027 555,424.5C 556.395,423.185 557.395,423.519 558,425.5C 560.893,425.285 564.059,425.285 567.5,425.5C 567.343,426.873 567.51,428.207 568,429.5C 568.333,427.167 568.667,424.833 569,422.5C 569.5,428.825 569.666,435.158 569.5,441.5C 566.749,445.757 563.416,449.59 559.5,453C 543.949,466.888 528.116,480.388 512,493.5C 492.699,477.2 473.699,460.533 455,443.5C 454.389,435.169 453.889,426.836 453.5,418.5C 453.672,409.19 454.172,409.19 455,418.5C 455.557,416.385 456.391,414.385 457.5,412.5C 456.975,411.808 456.308,411.308 455.5,411C 456.253,409.513 457.086,409.346 458,410.5C 458.374,409.584 458.874,408.75 459.5,408C 462.173,408.063 462.173,408.729 459.5,410C 461.464,410.624 463.131,410.124 464.5,408.5C 463.391,407.035 463.891,406.035 466,405.5C 466.419,409.852 467.086,410.185 468,406.5C 469.394,408.402 471.227,408.735 473.5,407.5C 473.665,403.818 473.499,400.152 473,396.5C 472.5,396 472,395.5 471.5,395C 473.004,393.509 473.837,391.676 474,389.5C 474.722,404.831 475.389,420.164 476,435.5C 485.883,445.383 496.383,454.55 507.5,463C 508.825,462.852 509.992,463.018 511,463.5C 511.191,461.292 511.691,459.292 512.5,457.5 Z"/></g>
<g><path style="opacity:1" fill="#28c4bf" d="M 548.5,431.5 C 548.663,433.857 548.497,436.19 548,438.5C 540.629,445.375 533.129,452.041 525.5,458.5C 525.062,458.565 524.728,458.399 524.5,458C 526.5,456 528.5,454 530.5,452C 529.061,451.009 528.061,449.676 527.5,448C 526.451,447.508 525.451,447.674 524.5,448.5C 523.485,445.832 521.818,445.166 519.5,446.5C 520.55,448.102 519.883,448.935 517.5,449C 517.833,449.333 518.167,449.667 518.5,450C 517.004,450.507 515.837,450.007 515,448.5C 514.667,449.833 514.333,451.167 514,452.5C 513.617,451.944 513.117,451.611 512.5,451.5C 512.5,443.833 512.5,436.167 512.5,428.5C 513.326,432.982 513.826,437.649 514,442.5C 514.333,437.5 514.667,432.5 515,427.5C 517.6,430.367 518.766,430.201 518.5,427C 522.118,426.034 525.451,426.534 528.5,428.5C 527.984,427.242 528.65,426.242 530.5,425.5C 533.969,429.03 537.802,429.363 542,426.5C 543.566,427.061 544.899,426.394 546,424.5C 546.698,427.004 547.531,429.337 548.5,431.5 Z"/></g>
<g><path style="opacity:1" fill="#1db3b8" d="M 525.5,458.5 C 522.474,462.517 518.808,465.85 514.5,468.5C 513.808,467.975 513.308,467.308 513,466.5C 512.502,463.518 512.335,460.518 512.5,457.5C 512.5,455.5 512.5,453.5 512.5,451.5C 513.117,451.611 513.617,451.944 514,452.5C 514.333,451.167 514.667,449.833 515,448.5C 515.837,450.007 517.004,450.507 518.5,450C 518.167,449.667 517.833,449.333 517.5,449C 519.883,448.935 520.55,448.102 519.5,446.5C 521.818,445.166 523.485,445.832 524.5,448.5C 525.451,447.674 526.451,447.508 527.5,448C 528.061,449.676 529.061,451.009 530.5,452C 528.5,454 526.5,456 524.5,458C 524.728,458.399 525.062,458.565 525.5,458.5 Z"/></g>
<g><path style="opacity:1" fill="#179aa5" d="M 374.5,417.5 C 376.801,451.599 389.301,481.266 412,506.5C 430.464,526.137 449.964,544.47 470.5,561.5C 471.57,569.413 475.07,576.08 481,581.5C 481.684,582.784 481.517,583.951 480.5,585C 483.39,587.322 485.39,589.822 486.5,592.5C 488.353,596.048 490.019,599.715 491.5,603.5C 500.222,615.27 506.389,627.936 510,641.5C 511.323,643.839 512.823,646.005 514.5,648C 513.826,649.751 513.493,651.417 513.5,653C 515.301,653.317 515.634,653.984 514.5,655C 515.448,655.483 516.448,655.649 517.5,655.5C 516.343,658.348 516.676,660.848 518.5,663C 517.833,663.333 517.167,663.667 516.5,664C 518.107,665.405 519.44,667.072 520.5,669C 519.458,670.655 518.125,671.821 516.5,672.5C 517.025,673.192 517.692,673.692 518.5,674C 518.167,674.333 517.833,674.667 517.5,675C 519.002,675.583 520.335,676.416 521.5,677.5C 520.675,678.386 519.675,678.719 518.5,678.5C 518.137,680.911 519.137,682.411 521.5,683C 520.065,685.267 520.398,687.267 522.5,689C 521.167,690.333 521.167,691.667 522.5,693C 521.743,694.512 520.743,695.846 519.5,697C 520.737,697.232 521.737,697.732 522.5,698.5C 514.132,719.414 502.132,737.914 486.5,754C 482.12,758.048 477.454,761.715 472.5,765C 471.5,765.667 470.5,765.667 469.5,765C 486.67,747.816 496.17,726.983 498,702.5C 501.738,670.298 495.404,640.298 479,612.5C 472.54,604.371 465.706,596.537 458.5,589C 451.833,584.667 445.167,580.333 438.5,576C 414.066,564.783 389.4,554.116 364.5,544C 338.607,533.313 316.107,517.813 297,497.5C 293.566,492.949 290.399,488.282 287.5,483.5C 287.905,482.45 288.571,482.45 289.5,483.5C 290.386,484.325 290.719,485.325 290.5,486.5C 292.308,486.509 293.975,486.009 295.5,485C 294.476,483.633 294.976,482.8 297,482.5C 296.973,483.788 297.973,484.788 300,485.5C 302.927,484.968 305.76,484.301 308.5,483.5C 308.313,484.817 308.98,486.15 310.5,487.5C 311.291,486.934 311.291,486.101 310.5,485C 311.535,483.726 312.702,482.56 314,481.5C 314.507,482.996 314.007,484.163 312.5,485C 314.531,487.464 317.198,488.797 320.5,489C 319.269,490.183 319.269,491.349 320.5,492.5C 321.086,492.291 321.586,491.957 322,491.5C 322.49,492.793 322.657,494.127 322.5,495.5C 325.272,493.566 327.105,494.233 328,497.5C 328.608,495.934 329.442,494.6 330.5,493.5C 354.6,515.22 382.267,530.72 413.5,540C 394.17,521.168 377.337,500.334 363,477.5C 350.181,454.211 343.681,429.544 343.5,403.5C 343.335,399.818 343.501,396.152 344,392.5C 345,391.167 346,391.167 347,392.5C 348.985,390.765 348.651,389.432 346,388.5C 345.444,390.595 344.944,390.762 344.5,389C 345.896,387.244 347.563,385.744 349.5,384.5C 348.471,384.704 347.471,384.204 346.5,383C 349.167,382.333 351.833,382.333 354.5,383C 353.167,383.667 351.833,384.333 350.5,385C 353.42,386.785 355.42,388.952 356.5,391.5C 354.025,393.887 351.691,395.721 349.5,397C 350.34,398.767 351.673,400.101 353.5,401C 353.167,401.333 352.833,401.667 352.5,402C 353.742,402.311 354.742,401.811 355.5,400.5C 356.418,402.839 358.084,404.339 360.5,405C 359.167,405.333 357.833,405.667 356.5,406C 359.167,407 359.167,408 356.5,409C 358.384,410.989 358.717,412.989 357.5,415C 358.126,415.75 358.626,416.584 359,417.5C 362.281,415.12 365.614,415.12 369,417.5C 369.591,420.275 370.758,422.775 372.5,425C 371.373,426.057 370.873,427.223 371,428.5C 372.397,427.774 373.231,426.607 373.5,425C 372.614,422.192 372.447,419.359 373,416.5C 373.383,417.056 373.883,417.389 374.5,417.5 Z"/></g>
<g><path style="opacity:1" fill="#1ea7af" d="M 291.5,421.5 C 297.211,449.598 310.211,473.598 330.5,493.5C 329.442,494.6 328.608,495.934 328,497.5C 327.105,494.233 325.272,493.566 322.5,495.5C 322.657,494.127 322.49,492.793 322,491.5C 321.586,491.957 321.086,492.291 320.5,492.5C 319.269,491.349 319.269,490.183 320.5,489C 317.198,488.797 314.531,487.464 312.5,485C 314.007,484.163 314.507,482.996 314,481.5C 312.702,482.56 311.535,483.726 310.5,485C 311.291,486.101 311.291,486.934 310.5,487.5C 308.98,486.15 308.313,484.817 308.5,483.5C 305.76,484.301 302.927,484.968 300,485.5C 297.973,484.788 296.973,483.788 297,482.5C 294.976,482.8 294.476,483.633 295.5,485C 293.975,486.009 292.308,486.509 290.5,486.5C 290.719,485.325 290.386,484.325 289.5,483.5C 288.571,482.45 287.905,482.45 287.5,483.5C 274.629,465.577 266.629,445.577 263.5,423.5C 263.34,421.801 263.506,420.134 264,418.5C 264.667,421.833 265.333,425.167 266,428.5C 267.085,427.707 268.252,427.04 269.5,426.5C 271.699,431.041 274.866,431.708 279,428.5C 280.221,429.272 281.221,430.272 282,431.5C 283.333,430.167 284.667,430.167 286,431.5C 288.657,428.511 290.491,425.178 291.5,421.5 Z"/></g>
<g><path style="opacity:1" fill="#31cbc1" d="M 686.5,480.5 C 685.464,482.391 685.464,484.224 686.5,486C 684.622,486.252 682.622,486.919 680.5,488C 679.232,489.707 679.232,491.874 680.5,494.5C 683.503,494.655 686.503,494.488 689.5,494C 688.833,493.333 688.167,492.667 687.5,492C 688.641,491.259 688.641,490.425 687.5,489.5C 687.833,488.5 688.5,487.833 689.5,487.5C 693.361,489.157 693.361,490.657 689.5,492C 690.861,493.807 692.195,494.807 693.5,495C 693.167,495.5 692.833,496 692.5,496.5C 691.188,495.54 689.854,495.706 688.5,497C 689.766,497.309 690.933,497.809 692,498.5C 693.667,497.167 695.333,497.167 697,498.5C 698.72,493.57 701.054,493.237 704,497.5C 705.129,495.859 706.629,494.859 708.5,494.5C 695.203,508.656 679.87,520.156 662.5,529C 655.933,532.451 649.266,535.618 642.5,538.5C 641.469,537.751 640.302,537.085 639,536.5C 638.667,536.833 638.333,537.167 638,537.5C 637.173,536.338 636.34,535.171 635.5,534C 638.308,530.169 637.974,529.336 634.5,531.5C 631.972,530.502 631.972,529.669 634.5,529C 633.747,527.513 632.914,527.346 632,528.5C 630.488,527.743 629.154,526.743 628,525.5C 627.692,526.308 627.192,526.975 626.5,527.5C 625.575,526.359 624.741,526.359 624,527.5C 622.887,526.24 622.72,525.073 623.5,524C 622.584,523.722 621.918,523.222 621.5,522.5C 645.379,511.739 667.046,497.739 686.5,480.5 Z"/></g>
<g><path style="opacity:1" fill="#2ac0bd" d="M 588.5,453.5 C 588.822,455.722 588.155,457.556 586.5,459C 587.328,459.915 588.328,460.581 589.5,461C 588.552,461.483 587.552,461.649 586.5,461.5C 586.66,463.199 586.494,464.866 586,466.5C 585.667,465.833 585.333,465.167 585,464.5C 584.08,464.93 583.247,465.264 582.5,465.5C 583.246,466.736 583.579,468.07 583.5,469.5C 579,469.164 577.167,471.164 578,475.5C 579.566,476.061 580.899,475.394 582,473.5C 582.419,474.672 583.085,475.672 584,476.5C 585.749,475.701 587.082,476.368 588,478.5C 589.229,476.053 590.729,475.887 592.5,478C 591.328,478.419 590.328,479.085 589.5,480C 591.351,480.837 593.184,481.671 595,482.5C 596.955,479.482 599.122,476.649 601.5,474C 601.167,473.667 600.833,473.333 600.5,473C 601.719,471.205 602.719,471.372 603.5,473.5C 596.601,483.906 589.101,493.906 581,503.5C 576.964,507.704 572.798,511.704 568.5,515.5C 566.123,515.216 563.956,515.216 562,515.5C 561.508,514.451 561.674,513.451 562.5,512.5C 560.083,511.928 557.916,510.928 556,509.5C 555.667,509.833 555.333,510.167 555,510.5C 553.601,509.773 552.101,509.273 550.5,509C 551.696,508.346 551.696,507.846 550.5,507.5C 549.481,508.687 548.314,509.687 547,510.5C 546.184,509.177 545.017,508.511 543.5,508.5C 560.663,491.781 575.663,473.447 588.5,453.5 Z"/></g>
<g><path style="opacity:1" fill="#1ca6af" d="M 430.5,435.5 C 437.667,455.509 448.167,473.509 462,489.5C 479.033,505.7 495.866,522.034 512.5,538.5C 511.71,539.794 510.71,540.961 509.5,542C 510.833,542.667 512.167,542.667 513.5,542C 512.742,540.636 513.242,539.469 515,538.5C 515.465,539.931 516.299,541.097 517.5,542C 517.167,542.333 516.833,542.667 516.5,543C 517.833,545 519.167,547 520.5,549C 519.754,551.093 519.421,553.093 519.5,555C 520.623,556.044 521.956,556.71 523.5,557C 522.142,558.309 520.809,559.642 519.5,561C 520.421,562.064 521.421,562.564 522.5,562.5C 519.522,567 516.689,571.667 514,576.5C 510.667,571.833 507.333,567.167 504,562.5C 482.977,543.81 462.977,524.144 444,503.5C 428.981,486.147 416.981,466.814 408,445.5C 404.577,436.735 402.077,427.735 400.5,418.5C 400.343,417.127 400.51,415.793 401,414.5C 402.542,419.825 404.709,424.825 407.5,429.5C 407.023,430.478 406.357,431.311 405.5,432C 407.225,431.591 408.892,431.758 410.5,432.5C 409.975,433.192 409.308,433.692 408.5,434C 409.646,434.645 410.646,435.478 411.5,436.5C 412.192,435.975 412.692,435.308 413,434.5C 414.934,436.419 414.767,437.919 412.5,439C 414.194,440.728 415.361,440.228 416,437.5C 416.667,438.833 417.333,438.833 418,437.5C 418.617,438.449 418.451,439.282 417.5,440C 419.32,440.979 420.487,442.479 421,444.5C 421.333,443.5 421.667,442.5 422,441.5C 422.787,442.711 423.454,443.711 424,444.5C 426.077,443.983 428.077,443.316 430,442.5C 430.492,443.549 430.326,444.549 429.5,445.5C 429.808,446.308 430.308,446.975 431,447.5C 431.694,443.998 431.194,440.664 429.5,437.5C 429.543,436.584 429.876,435.917 430.5,435.5 Z"/></g>
<g><path style="opacity:1" fill="#24b3b7" d="M 568.5,515.5 C 568.631,516.239 568.464,516.906 568,517.5C 552.858,532.811 537.691,547.811 522.5,562.5C 521.421,562.564 520.421,562.064 519.5,561C 520.809,559.642 522.142,558.309 523.5,557C 521.956,556.71 520.623,556.044 519.5,555C 519.421,553.093 519.754,551.093 520.5,549C 519.167,547 517.833,545 516.5,543C 516.833,542.667 517.167,542.333 517.5,542C 516.299,541.097 515.465,539.931 515,538.5C 513.242,539.469 512.742,540.636 513.5,542C 512.167,542.667 510.833,542.667 509.5,542C 510.71,540.961 511.71,539.794 512.5,538.5C 522.78,528.555 533.113,518.555 543.5,508.5C 545.017,508.511 546.184,509.177 547,510.5C 548.314,509.687 549.481,508.687 550.5,507.5C 551.696,507.846 551.696,508.346 550.5,509C 552.101,509.273 553.601,509.773 555,510.5C 555.333,510.167 555.667,509.833 556,509.5C 557.916,510.928 560.083,511.928 562.5,512.5C 561.674,513.451 561.508,514.451 562,515.5C 563.956,515.216 566.123,515.216 568.5,515.5 Z"/></g>
<g><path style="opacity:1" fill="#3ad2c4" d="M 829.5,506.5 C 832.5,506.5 835.5,506.5 838.5,506.5C 838.216,508.415 838.549,510.081 839.5,511.5C 838.26,512.973 837.26,514.64 836.5,516.5C 807.839,517.667 779.172,517.833 750.5,517C 746.961,516.718 743.461,516.218 740,515.5C 730.458,524.043 721.958,533.543 714.5,544C 711.101,544.546 707.768,544.213 704.5,543C 703.549,542.282 703.383,541.449 704,540.5C 710.627,532.204 717.627,524.204 725,516.5C 726.973,513.383 728.807,510.216 730.5,507C 763.498,506.5 796.498,506.333 829.5,506.5 Z"/></g>
<g><path style="opacity:1" fill="#2ac0bd" d="M 621.5,522.5 C 621.918,523.222 622.584,523.722 623.5,524C 622.72,525.073 622.887,526.24 624,527.5C 624.741,526.359 625.575,526.359 626.5,527.5C 627.192,526.975 627.692,526.308 628,525.5C 629.154,526.743 630.488,527.743 632,528.5C 632.914,527.346 633.747,527.513 634.5,529C 631.972,529.669 631.972,530.502 634.5,531.5C 637.974,529.336 638.308,530.169 635.5,534C 636.34,535.171 637.173,536.338 638,537.5C 638.333,537.167 638.667,536.833 639,536.5C 640.302,537.085 641.469,537.751 642.5,538.5C 625.032,546.4 608.032,555.067 591.5,564.5C 590.48,563.046 589.313,562.713 588,563.5C 586.933,562.809 585.766,562.309 584.5,562C 586.167,561.667 587.833,561.333 589.5,561C 585.221,558.694 581.221,556.027 577.5,553C 578.898,551.351 578.564,550.018 576.5,549C 577.907,547.548 579.407,547.715 581,549.5C 581.273,547.899 581.773,546.399 582.5,545C 581.906,544.536 581.239,544.369 580.5,544.5C 593.368,535.896 607.035,528.563 621.5,522.5 Z"/></g>
<g><path style="opacity:1" fill="#eac44f" d="M 837.5,562.5 C 836.508,569.982 836.175,577.648 836.5,585.5C 826.652,585.173 816.986,585.506 807.5,586.5C 806.5,586.5 805.5,586.5 804.5,586.5C 802.833,586.5 801.167,586.5 799.5,586.5C 799.5,586.167 799.5,585.833 799.5,585.5C 797.031,584.683 794.365,584.183 791.5,584C 790.565,581.619 790.232,579.119 790.5,576.5C 803.344,576.829 816.011,576.495 828.5,575.5C 828.5,568.167 828.5,560.833 828.5,553.5C 831.807,554.051 835.14,554.384 838.5,554.5C 838.599,557.237 838.265,559.904 837.5,562.5 Z"/></g>
<g><path style="opacity:1" fill="#2ab5b9" d="M 580.5,544.5 C 581.239,544.369 581.906,544.536 582.5,545C 581.773,546.399 581.273,547.899 581,549.5C 579.407,547.715 577.907,547.548 576.5,549C 578.564,550.018 578.898,551.351 577.5,553C 581.221,556.027 585.221,558.694 589.5,561C 587.833,561.333 586.167,561.667 584.5,562C 585.766,562.309 586.933,562.809 588,563.5C 589.313,562.713 590.48,563.046 591.5,564.5C 578.942,573.719 567.275,584.052 556.5,595.5C 555.791,594.596 554.791,594.263 553.5,594.5C 552.343,591.652 552.676,589.152 554.5,587C 553.256,586.544 552.423,587.044 552,588.5C 550.605,586.86 549.105,585.36 547.5,584C 548.833,583.667 550.167,583.333 551.5,583C 549.845,581.556 549.178,579.722 549.5,577.5C 546.167,578.833 542.833,580.167 539.5,581.5C 551.02,566.64 564.686,554.307 580.5,544.5 Z"/></g>
<g><path style="opacity:1" fill="#32c8c1" d="M 338.5,560.5 C 346.961,562.765 355.294,565.431 363.5,568.5C 363.47,569.497 363.97,570.164 365,570.5C 367.922,571.384 370.755,572.384 373.5,573.5C 372.948,575.331 372.948,576.997 373.5,578.5C 369.874,580.697 370.207,582.697 374.5,584.5C 373.359,585.425 373.359,586.259 374.5,587C 376.087,587.862 377.754,588.529 379.5,589C 378.207,589.49 376.873,589.657 375.5,589.5C 369.067,588.475 362.733,586.975 356.5,585C 352.848,584.501 349.182,584.335 345.5,584.5C 346.263,583.732 347.263,583.232 348.5,583C 341.707,581.124 335.04,578.958 328.5,576.5C 332.664,576.665 336.997,576.165 341.5,575C 341.167,574.667 340.833,574.333 340.5,574C 342.135,573.46 343.468,573.96 344.5,575.5C 344.833,574.833 345.167,574.167 345.5,573.5C 348.849,574.83 349.182,574.33 346.5,572C 347.345,570.442 346.679,569.442 344.5,569C 345.5,568.667 346.5,568.333 347.5,568C 346.24,566.887 345.073,566.72 344,567.5C 343.167,566.5 342.333,565.5 341.5,564.5C 341.511,565.441 341.011,566.108 340,566.5C 338.365,566.122 336.865,565.456 335.5,564.5C 336.167,563.833 336.833,563.167 337.5,562.5C 336.019,561.056 336.352,560.389 338.5,560.5 Z"/></g>
<g><path style="opacity:1" fill="#1994a0" d="M 655.5,571.5 C 659.846,571.334 664.179,571.501 668.5,572C 666.167,572.333 663.833,572.667 661.5,573C 663.473,573.495 665.473,573.662 667.5,573.5C 667.785,575.288 667.452,576.955 666.5,578.5C 662.493,579.664 658.993,581.664 656,584.5C 653.487,582.75 650.654,582.584 647.5,584C 647.833,584.333 648.167,584.667 648.5,585C 647.643,585.689 646.977,586.522 646.5,587.5C 650.459,588.327 654.459,588.827 658.5,589C 653.649,589.174 648.982,589.674 644.5,590.5C 621.493,590.6 599.66,595.6 579,605.5C 578.333,604.833 578.333,604.167 579,603.5C 600.419,583.406 625.919,572.74 655.5,571.5 Z"/></g>
<g><path style="opacity:1" fill="#1ca8b0" d="M 703.5,572.5 C 704.609,573.29 705.942,573.79 707.5,574C 706.167,574.333 704.833,574.667 703.5,575C 707.219,575.388 710.886,576.055 714.5,577C 712.069,577.295 710.236,578.462 709,580.5C 708.676,578.431 707.842,578.098 706.5,579.5C 705.479,580.002 705.312,580.668 706,581.5C 706.914,580.346 707.747,580.513 708.5,582C 706.833,582.333 705.167,582.667 703.5,583C 704.833,584 704.833,585 703.5,586C 702.216,586.684 701.049,586.517 700,585.5C 698.592,591.168 695.259,592.834 690,590.5C 689.311,591.357 688.478,592.023 687.5,592.5C 684.033,591.212 680.7,591.212 677.5,592.5C 666.547,591.13 655.547,590.464 644.5,590.5C 648.982,589.674 653.649,589.174 658.5,589C 654.459,588.827 650.459,588.327 646.5,587.5C 646.977,586.522 647.643,585.689 648.5,585C 648.167,584.667 647.833,584.333 647.5,584C 650.654,582.584 653.487,582.75 656,584.5C 658.993,581.664 662.493,579.664 666.5,578.5C 667.452,576.955 667.785,575.288 667.5,573.5C 665.473,573.662 663.473,573.495 661.5,573C 663.833,572.667 666.167,572.333 668.5,572C 664.179,571.501 659.846,571.334 655.5,571.5C 660.505,570.71 665.672,570.043 671,569.5C 682.026,570.002 692.859,571.002 703.5,572.5 Z"/></g>
<g><path style="opacity:1" fill="#24b4b7" d="M 703.5,572.5 C 712.43,573.42 721.096,575.087 729.5,577.5C 728.737,578.268 727.737,578.768 726.5,579C 728.899,580.96 729.065,583.126 727,585.5C 726.086,584.346 725.253,584.513 724.5,586C 724.833,586.333 725.167,586.667 725.5,587C 724.5,587.333 723.5,587.667 722.5,588C 721.853,589.609 721.02,591.109 720,592.5C 718.951,591.483 717.784,591.316 716.5,592C 715.923,593.714 714.423,595.214 712,596.5C 711.086,595.346 710.253,595.513 709.5,597C 712.529,597.539 715.529,598.206 718.5,599C 717.552,599.483 716.552,599.649 715.5,599.5C 702.618,597.655 689.952,595.322 677.5,592.5C 680.7,591.212 684.033,591.212 687.5,592.5C 688.478,592.023 689.311,591.357 690,590.5C 695.259,592.834 698.592,591.168 700,585.5C 701.049,586.517 702.216,586.684 703.5,586C 704.833,585 704.833,584 703.5,583C 705.167,582.667 706.833,582.333 708.5,582C 707.747,580.513 706.914,580.346 706,581.5C 705.312,580.668 705.479,580.002 706.5,579.5C 707.842,578.098 708.676,578.431 709,580.5C 710.236,578.462 712.069,577.295 714.5,577C 710.886,576.055 707.219,575.388 703.5,575C 704.833,574.667 706.167,574.333 707.5,574C 705.942,573.79 704.609,573.29 703.5,572.5 Z"/></g>
<g><path style="opacity:1" fill="#e6b019" d="M 789.5,575.5 C 802.5,575.5 815.5,575.5 828.5,575.5C 816.011,576.495 803.344,576.829 790.5,576.5C 790.232,579.119 790.565,581.619 791.5,584C 794.365,584.183 797.031,584.683 799.5,585.5C 796.167,585.5 792.833,585.5 789.5,585.5C 789.5,582.167 789.5,578.833 789.5,575.5 Z"/></g>
<g><path style="opacity:1" fill="#3fd2c4" d="M 751.5,582.5 C 763.778,584.16 776.111,585.16 788.5,585.5C 791.962,586.482 795.629,586.815 799.5,586.5C 801.167,586.5 802.833,586.5 804.5,586.5C 800.848,590.652 797.015,594.652 793,598.5C 791.237,598.025 789.57,597.358 788,596.5C 788.263,595.049 788.096,593.716 787.5,592.5C 776.441,597.848 764.775,600.848 752.5,601.5C 747.349,600.673 742.016,600.173 736.5,600C 737.167,599.333 737.833,598.667 738.5,598C 738.032,596.178 737.699,594.011 737.5,591.5C 738.833,591.5 740.167,591.5 741.5,591.5C 741.513,588.639 742.679,587.639 745,588.5C 747.185,587.33 749.351,586.164 751.5,585C 747.544,583.886 747.544,583.053 751.5,582.5 Z"/></g>
<g><path style="opacity:1" fill="#d5d289" d="M 789.5,575.5 C 789.5,578.833 789.5,582.167 789.5,585.5C 792.833,585.5 796.167,585.5 799.5,585.5C 799.5,585.833 799.5,586.167 799.5,586.5C 795.629,586.815 791.962,586.482 788.5,585.5C 788.187,581.958 788.521,578.625 789.5,575.5 Z"/></g>
<g><path style="opacity:0.798" fill="#e4b21a" d="M 837.5,562.5 C 837.5,570.5 837.5,578.5 837.5,586.5C 827.5,586.5 817.5,586.5 807.5,586.5C 816.986,585.506 826.652,585.173 836.5,585.5C 836.175,577.648 836.508,569.982 837.5,562.5 Z"/></g>
<g><path style="opacity:1" fill="#21abb2" d="M 363.5,568.5 C 383.243,573.96 401.576,582.293 418.5,593.5C 417.25,593.577 416.417,594.244 416,595.5C 415.612,594.572 414.945,593.905 414,593.5C 411.586,595.084 408.92,596.084 406,596.5C 395.712,594.212 385.545,591.879 375.5,589.5C 376.873,589.657 378.207,589.49 379.5,589C 377.754,588.529 376.087,587.862 374.5,587C 373.359,586.259 373.359,585.425 374.5,584.5C 370.207,582.697 369.874,580.697 373.5,578.5C 372.948,576.997 372.948,575.331 373.5,573.5C 370.755,572.384 367.922,571.384 365,570.5C 363.97,570.164 363.47,569.497 363.5,568.5 Z"/></g>
<g><path style="opacity:1" fill="#2cc7bf" d="M 729.5,577.5 C 737.016,578.882 744.35,580.548 751.5,582.5C 747.544,583.053 747.544,583.886 751.5,585C 749.351,586.164 747.185,587.33 745,588.5C 742.679,587.639 741.513,588.639 741.5,591.5C 740.167,591.5 738.833,591.5 737.5,591.5C 737.699,594.011 738.032,596.178 738.5,598C 737.833,598.667 737.167,599.333 736.5,600C 742.016,600.173 747.349,600.673 752.5,601.5C 743.161,601.666 733.827,601.5 724.5,601C 721.305,600.819 718.305,600.319 715.5,599.5C 716.552,599.649 717.552,599.483 718.5,599C 715.529,598.206 712.529,597.539 709.5,597C 710.253,595.513 711.086,595.346 712,596.5C 714.423,595.214 715.923,593.714 716.5,592C 717.784,591.316 718.951,591.483 720,592.5C 721.02,591.109 721.853,589.609 722.5,588C 723.5,587.667 724.5,587.333 725.5,587C 725.167,586.667 724.833,586.333 724.5,586C 725.253,584.513 726.086,584.346 727,585.5C 729.065,583.126 728.899,580.96 726.5,579C 727.737,578.768 728.737,578.268 729.5,577.5 Z"/></g>
<g><path style="opacity:1" fill="#1696a2" d="M 345.5,584.5 C 349.182,584.335 352.848,584.501 356.5,585C 362.733,586.975 369.067,588.475 375.5,589.5C 385.545,591.879 395.712,594.212 406,596.5C 408.92,596.084 411.586,595.084 414,593.5C 414.945,593.905 415.612,594.572 416,595.5C 416.417,594.244 417.25,593.577 418.5,593.5C 443.933,607.745 460.766,628.745 469,656.5C 445.957,620.731 413.124,604.897 370.5,609C 362.996,610.376 355.663,612.376 348.5,615C 336.743,620.586 324.743,625.586 312.5,630C 301.04,633.626 289.374,634.792 277.5,633.5C 276.737,632.732 275.737,632.232 274.5,632C 275.167,631.667 275.833,631.333 276.5,631C 275.333,630.5 274.5,629.667 274,628.5C 269.526,629.765 269.359,629.099 273.5,626.5C 273.291,625.914 272.957,625.414 272.5,625C 274.937,621.053 277.604,617.22 280.5,613.5C 280.833,614.167 281.167,614.833 281.5,615.5C 282.063,613.291 283.396,611.791 285.5,611C 284.167,609.16 284.334,608.66 286,609.5C 286.483,608.552 286.649,607.552 286.5,606.5C 284.738,606.357 283.071,606.691 281.5,607.5C 280.537,607.03 280.537,606.363 281.5,605.5C 296.246,598.796 311.246,592.629 326.5,587C 332.886,585.061 339.219,584.228 345.5,584.5 Z"/></g>
<g><path style="opacity:1" fill="#1faab2" d="M 556.5,595.5 C 541.316,615.875 530.982,638.541 525.5,663.5C 525.167,663.5 524.833,663.5 524.5,663.5C 523.082,661.692 521.082,661.025 518.5,661.5C 518.36,659.876 519.027,658.71 520.5,658C 520.167,657.667 519.833,657.333 519.5,657C 520.448,656.517 521.448,656.351 522.5,656.5C 522.351,655.448 522.517,654.448 523,653.5C 523.419,654.672 524.085,655.672 525,656.5C 525.262,652.253 524.095,648.42 521.5,645C 522.167,644.667 522.833,644.333 523.5,644C 520.532,642.737 519.532,640.737 520.5,638C 519.833,637.667 519.167,637.333 518.5,637C 519.451,636.282 519.617,635.449 519,634.5C 518,634.833 517,635.167 516,635.5C 515.5,635 515,634.5 514.5,634C 515.5,632.333 516.5,630.667 517.5,629C 515.699,628.683 515.366,628.016 516.5,627C 514.347,625.109 513.68,622.943 514.5,620.5C 513.007,619.859 512.007,618.859 511.5,617.5C 513.308,618.317 514.808,617.65 516,615.5C 522.526,603.162 530.36,591.828 539.5,581.5C 542.833,580.167 546.167,578.833 549.5,577.5C 549.178,579.722 549.845,581.556 551.5,583C 550.167,583.333 548.833,583.667 547.5,584C 549.105,585.36 550.605,586.86 552,588.5C 552.423,587.044 553.256,586.544 554.5,587C 552.676,589.152 552.343,591.652 553.5,594.5C 554.791,594.263 555.791,594.596 556.5,595.5 Z"/></g>
<g><path style="opacity:1" fill="#1ba1ab" d="M 281.5,605.5 C 280.537,606.363 280.537,607.03 281.5,607.5C 283.071,606.691 284.738,606.357 286.5,606.5C 286.649,607.552 286.483,608.552 286,609.5C 284.334,608.66 284.167,609.16 285.5,611C 283.396,611.791 282.063,613.291 281.5,615.5C 281.167,614.833 280.833,614.167 280.5,613.5C 277.604,617.22 274.937,621.053 272.5,625C 272.957,625.414 273.291,625.914 273.5,626.5C 269.359,629.099 269.526,629.765 274,628.5C 274.5,629.667 275.333,630.5 276.5,631C 275.833,631.333 275.167,631.667 274.5,632C 275.737,632.232 276.737,632.732 277.5,633.5C 258.207,630.021 241.54,621.521 227.5,608C 245.66,613.003 263.66,612.169 281.5,605.5 Z"/></g>
<g><path style="opacity:1" fill="#26bebc" d="M 639.5,611.5 C 638.432,612.434 637.099,612.768 635.5,612.5C 635.5,613.5 635.5,614.5 635.5,615.5C 631.985,615.83 628.652,615.997 625.5,616C 625.833,616.333 626.167,616.667 626.5,617C 624.381,617.098 622.714,617.931 621.5,619.5C 622.355,620.293 623.189,619.96 624,618.5C 624.5,619 625,619.5 625.5,620C 624.051,621.117 622.384,621.784 620.5,622C 621.956,622.423 622.456,623.256 622,624.5C 621.667,624.167 621.333,623.833 621,623.5C 620.097,624.701 618.931,625.535 617.5,626C 617.665,627.117 617.998,628.284 618.5,629.5C 617.194,630.912 616.36,632.579 616,634.5C 615.25,635.126 614.416,635.626 613.5,636C 618.5,636.333 623.5,636.667 628.5,637C 626.866,637.494 625.199,637.66 623.5,637.5C 607.357,636.879 591.691,639.213 576.5,644.5C 575.737,643.732 574.737,643.232 573.5,643C 575.991,642.374 575.991,641.541 573.5,640.5C 576.862,638.118 577.195,635.451 574.5,632.5C 574.723,631.033 575.056,629.533 575.5,628C 573.317,626.795 571.984,625.295 571.5,623.5C 581.727,616.698 593.06,612.531 605.5,611C 616.589,609.639 627.923,609.805 639.5,611.5 Z"/></g>
<g><path style="opacity:1" fill="#3ad0c3" d="M 639.5,611.5 C 658.036,615.373 676.702,618.54 695.5,621C 713.861,623.049 732.195,622.883 750.5,620.5C 751.167,620.833 751.833,621.167 752.5,621.5C 724.728,640.558 694.061,647.725 660.5,643C 648.037,641.07 635.704,639.237 623.5,637.5C 625.199,637.66 626.866,637.494 628.5,637C 623.5,636.667 618.5,636.333 613.5,636C 614.416,635.626 615.25,635.126 616,634.5C 616.36,632.579 617.194,630.912 618.5,629.5C 617.998,628.284 617.665,627.117 617.5,626C 618.931,625.535 620.097,624.701 621,623.5C 621.333,623.833 621.667,624.167 622,624.5C 622.456,623.256 621.956,622.423 620.5,622C 622.384,621.784 624.051,621.117 625.5,620C 625,619.5 624.5,619 624,618.5C 623.189,619.96 622.355,620.293 621.5,619.5C 622.714,617.931 624.381,617.098 626.5,617C 626.167,616.667 625.833,616.333 625.5,616C 628.652,615.997 631.985,615.83 635.5,615.5C 635.5,614.5 635.5,613.5 635.5,612.5C 637.099,612.768 638.432,612.434 639.5,611.5 Z"/></g>
<g><path style="opacity:1" fill="#24afb5" d="M 571.5,623.5 C 571.984,625.295 573.317,626.795 575.5,628C 575.056,629.533 574.723,631.033 574.5,632.5C 577.195,635.451 576.862,638.118 573.5,640.5C 575.991,641.541 575.991,642.374 573.5,643C 574.737,643.232 575.737,643.732 576.5,644.5C 565.966,649.259 556.3,655.259 547.5,662.5C 548.15,660.565 548.483,658.565 548.5,656.5C 544.551,656.307 544.551,655.807 548.5,655C 546.012,653.315 546.345,651.981 549.5,651C 549.112,649.192 549.112,647.525 549.5,646C 551.991,645.374 551.991,644.541 549.5,643.5C 550.04,642.252 550.707,641.085 551.5,640C 550.906,639.536 550.239,639.369 549.5,639.5C 555.988,633.013 563.321,627.68 571.5,623.5 Z"/></g>
<g><path style="opacity:1" fill="#43d4c6" d="M 159.5,539.5 C 178.985,538.48 186.819,547.48 183,566.5C 181.09,571.909 177.59,575.909 172.5,578.5C 171.657,583.777 171.323,588.943 171.5,594C 172.152,607.789 172.985,621.623 174,635.5C 178.05,653.873 189.55,663.04 208.5,663C 249.719,663.553 290.719,663.387 331.5,662.5C 356.171,662.797 380.837,663.297 405.5,664C 413.432,665.942 420.432,669.609 426.5,675C 440.683,689.682 454.683,704.516 468.5,719.5C 466.517,721.984 464.35,724.317 462,726.5C 447.192,712.025 432.692,697.191 418.5,682C 414.391,678.612 409.725,676.279 404.5,675C 340.462,674.286 276.462,674.452 212.5,675.5C 182.913,675.408 166.413,660.741 163,631.5C 162.305,614.17 161.805,596.837 161.5,579.5C 151.84,576.308 146.84,569.474 146.5,559C 147.083,549.93 151.417,543.43 159.5,539.5 Z M 161.5,550.5 C 171.552,549.047 175.385,553.047 173,562.5C 168.352,569.843 163.352,570.176 158,563.5C 155.991,558.355 157.157,554.021 161.5,550.5 Z"/></g>
<g><path style="opacity:1" fill="#eac34d" d="M 800.5,653.5 C 801.833,653.5 803.167,653.5 804.5,653.5C 805.365,661.466 805.698,669.466 805.5,677.5C 799.465,677.537 793.465,678.037 787.5,679C 783.042,685.792 777.542,691.625 771,696.5C 770.586,696.043 770.086,695.709 769.5,695.5C 722.874,696.328 676.208,696.828 629.5,697C 624.742,696.965 620.409,698.298 616.5,701C 599.338,720.495 581.171,738.995 562,756.5C 548.396,772.106 534.063,787.106 519,801.5C 518.393,822.179 518.727,842.846 520,863.5C 531.049,869.647 534.382,878.647 530,890.5C 522.834,900.078 514,901.911 503.5,896C 495.375,888.015 494.375,879.181 500.5,869.5C 502.555,867.445 504.888,865.779 507.5,864.5C 507.548,842.524 507.715,820.524 508,798.5C 508.667,797.167 509.333,795.833 510,794.5C 544.393,759.771 578.559,724.604 612.5,689C 615.363,687.601 618.363,686.601 621.5,686C 670.5,685.667 719.5,685.333 768.5,685C 774.005,679.828 779.172,674.328 784,668.5C 784.226,664.113 784.726,659.779 785.5,655.5C 790.651,654.833 795.651,654.166 800.5,653.5 Z"/></g>
<g><path style="opacity:1" fill="#1ba2ac" d="M 470.5,561.5 C 487.996,577.334 501.662,596.001 511.5,617.5C 512.007,618.859 513.007,619.859 514.5,620.5C 513.68,622.943 514.347,625.109 516.5,627C 515.366,628.016 515.699,628.683 517.5,629C 516.5,630.667 515.5,632.333 514.5,634C 515,634.5 515.5,635 516,635.5C 517,635.167 518,634.833 519,634.5C 519.617,635.449 519.451,636.282 518.5,637C 519.167,637.333 519.833,637.667 520.5,638C 519.532,640.737 520.532,642.737 523.5,644C 522.833,644.333 522.167,644.667 521.5,645C 524.095,648.42 525.262,652.253 525,656.5C 524.085,655.672 523.419,654.672 523,653.5C 522.517,654.448 522.351,655.448 522.5,656.5C 521.448,656.351 520.448,656.517 519.5,657C 519.833,657.333 520.167,657.667 520.5,658C 519.027,658.71 518.36,659.876 518.5,661.5C 521.082,661.025 523.082,661.692 524.5,663.5C 524.833,664.833 525.167,664.833 525.5,663.5C 533.14,655.194 541.14,647.194 549.5,639.5C 550.239,639.369 550.906,639.536 551.5,640C 550.707,641.085 550.04,642.252 549.5,643.5C 551.991,644.541 551.991,645.374 549.5,646C 549.112,647.525 549.112,649.192 549.5,651C 546.345,651.981 546.012,653.315 548.5,655C 544.551,655.807 544.551,656.307 548.5,656.5C 548.483,658.565 548.15,660.565 547.5,662.5C 537.575,673.42 529.241,685.42 522.5,698.5C 521.737,697.732 520.737,697.232 519.5,697C 520.743,695.846 521.743,694.512 522.5,693C 521.167,691.667 521.167,690.333 522.5,689C 520.398,687.267 520.065,685.267 521.5,683C 519.137,682.411 518.137,680.911 518.5,678.5C 519.675,678.719 520.675,678.386 521.5,677.5C 520.335,676.416 519.002,675.583 517.5,675C 517.833,674.667 518.167,674.333 518.5,674C 517.692,673.692 517.025,673.192 516.5,672.5C 518.125,671.821 519.458,670.655 520.5,669C 519.44,667.072 518.107,665.405 516.5,664C 517.167,663.667 517.833,663.333 518.5,663C 516.676,660.848 516.343,658.348 517.5,655.5C 516.448,655.649 515.448,655.483 514.5,655C 515.634,653.984 515.301,653.317 513.5,653C 513.493,651.417 513.826,649.751 514.5,648C 512.823,646.005 511.323,643.839 510,641.5C 506.389,627.936 500.222,615.27 491.5,603.5C 490.019,599.715 488.353,596.048 486.5,592.5C 485.39,589.822 483.39,587.322 480.5,585C 481.517,583.951 481.684,582.784 481,581.5C 475.07,576.08 471.57,569.413 470.5,561.5 Z"/></g>
<g><path style="opacity:1" fill="#3ed4c6" d="M 635.5,713.5 C 665.468,714.477 695.468,714.81 725.5,714.5C 725.674,721.535 725.341,728.535 724.5,735.5C 718.816,735.257 713.149,734.757 707.5,734C 707.12,731.111 706.786,728.277 706.5,725.5C 684.016,725.273 661.683,725.606 639.5,726.5C 611.352,756.815 582.685,786.648 553.5,816C 545.925,817.921 543.425,815.088 546,807.5C 576.037,776.298 605.871,744.964 635.5,713.5 Z"/></g>
<g><path style="opacity:1" fill="#42d4c6" d="M 288.5,697.5 C 320.498,698.635 352.498,698.802 384.5,698C 404.041,716.54 422.541,736.04 440,756.5C 440.168,767.848 440.668,779.181 441.5,790.5C 453.791,797.207 456.958,806.874 451,819.5C 441.368,829.791 431.368,830.124 421,820.5C 415.338,808.483 417.838,798.483 428.5,790.5C 429.666,780.517 429.832,770.517 429,760.5C 413.167,744 397.333,727.5 381.5,711C 341.252,709.512 300.919,709.012 260.5,709.5C 260.5,705.833 260.5,702.167 260.5,698.5C 270.015,698.827 279.348,698.494 288.5,697.5 Z M 433.5,800.5 C 443.118,800.271 446.284,804.604 443,813.5C 439.861,817.577 436.028,818.41 431.5,816C 427.398,810.317 428.065,805.15 433.5,800.5 Z"/></g>
<g><path style="opacity:1" fill="#fefcf7" d="M 510.5,873.5 C 520.855,873.038 523.855,877.538 519.5,887C 509.821,890.983 505.654,887.816 507,877.5C 508.376,876.295 509.542,874.962 510.5,873.5 Z"/></g>
</svg>
